<svg width="32" height="32" viewBox="0 0 32 32" fill="none" xmlns="http://www.w3.org/2000/svg">
<path d="M9.65366 2.66699H7.12033C4.20033 2.66699 2.66699 4.20033 2.66699 7.10699V9.64033C2.66699 12.547 4.20033 14.0803 7.10699 14.0803H9.64033C12.547 14.0803 14.0803 12.547 14.0803 9.64033V7.10699C14.0937 4.20033 12.5603 2.66699 9.65366 2.66699Z" fill="#FF0000"/>
<path opacity="0.4" d="M24.8923 2.66699H22.3589C19.4523 2.66699 17.9189 4.20033 17.9189 7.10699V9.64033C17.9189 12.547 19.4523 14.0803 22.3589 14.0803H24.8923C27.7989 14.0803 29.3323 12.547 29.3323 9.64033V7.10699C29.3323 4.20033 27.7989 2.66699 24.8923 2.66699Z" fill="#FF0000"/>
<path d="M24.8923 17.9072H22.3589C19.4523 17.9072 17.9189 19.4406 17.9189 22.3472V24.8806C17.9189 27.7872 19.4523 29.3206 22.3589 29.3206H24.8923C27.7989 29.3206 29.3323 27.7872 29.3323 24.8806V22.3472C29.3323 19.4406 27.7989 17.9072 24.8923 17.9072Z" fill="#FF0000"/>
<path opacity="0.4" d="M9.65366 17.9072H7.12033C4.20033 17.9072 2.66699 19.4406 2.66699 22.3472V24.8806C2.66699 27.8006 4.20033 29.3339 7.10699 29.3339H9.64033C12.547 29.3339 14.0803 27.8006 14.0803 24.8939V22.3606C14.0937 19.4406 12.5603 17.9072 9.65366 17.9072Z" fill="#FF0000"/>
</svg>
