<svg width="34" height="29" viewBox="0 0 34 29" fill="none" xmlns="http://www.w3.org/2000/svg">
<path d="M14.1668 13.4998C12.3335 13.4998 10.7641 12.8471 9.4585 11.5415C8.15294 10.2359 7.50016 8.6665 7.50016 6.83317C7.50016 4.99984 8.15294 3.43039 9.4585 2.12484C10.7641 0.819282 12.3335 0.166504 14.1668 0.166504C16.0002 0.166504 17.5696 0.819282 18.8752 2.12484C20.1807 3.43039 20.8335 4.99984 20.8335 6.83317C20.8335 8.6665 20.1807 10.2359 18.8752 11.5415C17.5696 12.8471 16.0002 13.4998 14.1668 13.4998ZM0.833496 26.8332V22.1665C0.833496 21.2498 1.06961 20.3887 1.54183 19.5832C2.01405 18.7776 2.66683 18.1665 3.50016 17.7498C4.91683 17.0276 6.51405 16.4165 8.29183 15.9165C10.0696 15.4165 12.0279 15.1665 14.1668 15.1665H14.7502C14.9168 15.1665 15.0835 15.1943 15.2502 15.2498C15.0279 15.7498 14.8404 16.2707 14.6877 16.8123C14.5349 17.354 14.4168 17.9165 14.3335 18.4998H14.1668C12.1946 18.4998 10.4238 18.7498 8.85433 19.2498C7.28489 19.7498 6.00016 20.2498 5.00016 20.7498C4.75016 20.8887 4.54877 21.0832 4.396 21.3332C4.24322 21.5832 4.16683 21.8609 4.16683 22.1665V23.4998H14.6668C14.8335 24.0832 15.0557 24.6596 15.3335 25.229C15.6113 25.7985 15.9168 26.3332 16.2502 26.8332H0.833496ZM24.1668 28.4998L23.6668 25.9998C23.3335 25.861 23.021 25.7151 22.7293 25.5623C22.4377 25.4096 22.1391 25.2221 21.8335 24.9998L19.4168 25.7498L17.7502 22.9165L19.6668 21.2498C19.6113 20.861 19.5835 20.4998 19.5835 20.1665C19.5835 19.8332 19.6113 19.4721 19.6668 19.0832L17.7502 17.4165L19.4168 14.5832L21.8335 15.3332C22.1391 15.1109 22.4377 14.9234 22.7293 14.7707C23.021 14.6179 23.3335 14.4721 23.6668 14.3332L24.1668 11.8332H27.5002L28.0002 14.3332C28.3335 14.4721 28.646 14.6248 28.9377 14.7915C29.2293 14.9582 29.5279 15.1665 29.8335 15.4165L32.2502 14.5832L33.9168 17.4998L32.0002 19.1665C32.0557 19.4998 32.0835 19.8471 32.0835 20.2082C32.0835 20.5693 32.0557 20.9165 32.0002 21.2498L33.9168 22.9165L32.2502 25.7498L29.8335 24.9998C29.5279 25.2221 29.2293 25.4096 28.9377 25.5623C28.646 25.7151 28.3335 25.861 28.0002 25.9998L27.5002 28.4998H24.1668ZM25.8335 23.4998C26.7502 23.4998 27.5349 23.1735 28.1877 22.5207C28.8404 21.8679 29.1668 21.0832 29.1668 20.1665C29.1668 19.2498 28.8404 18.4651 28.1877 17.8123C27.5349 17.1596 26.7502 16.8332 25.8335 16.8332C24.9168 16.8332 24.1321 17.1596 23.4793 17.8123C22.8266 18.4651 22.5002 19.2498 22.5002 20.1665C22.5002 21.0832 22.8266 21.8679 23.4793 22.5207C24.1321 23.1735 24.9168 23.4998 25.8335 23.4998ZM14.1668 10.1665C15.0835 10.1665 15.8682 9.84012 16.521 9.18734C17.1738 8.53456 17.5002 7.74984 17.5002 6.83317C17.5002 5.9165 17.1738 5.13178 16.521 4.479C15.8682 3.82623 15.0835 3.49984 14.1668 3.49984C13.2502 3.49984 12.4654 3.82623 11.8127 4.479C11.1599 5.13178 10.8335 5.9165 10.8335 6.83317C10.8335 7.74984 11.1599 8.53456 11.8127 9.18734C12.4654 9.84012 13.2502 10.1665 14.1668 10.1665Z" fill="#1C1B1F"/>
</svg>
