<svg width="19" height="12" viewBox="0 0 19 12" fill="none" xmlns="http://www.w3.org/2000/svg">
<path fill-rule="evenodd" clip-rule="evenodd" d="M9.49972 0.166992C14.608 0.166992 17.0253 3.59196 17.8763 5.19314C18.1473 5.70299 18.1473 6.29766 17.8763 6.80751C17.0253 8.40869 14.608 11.8337 9.49972 11.8337C4.39139 11.8337 1.97411 8.40869 1.12315 6.80751C0.852181 6.29766 0.852181 5.70299 1.12315 5.19314C1.97411 3.59196 4.39139 0.166992 9.49972 0.166992ZM5.19667 3.06507C3.81312 3.98178 3.00523 5.20318 2.59488 5.97531C2.59029 5.98393 2.58841 5.98991 2.58758 5.9932C2.58675 5.99654 2.58659 6.00033 2.58659 6.00033C2.58659 6.00033 2.58675 6.00411 2.58758 6.00745C2.58841 6.01074 2.59029 6.01672 2.59488 6.02534C3.00523 6.79747 3.81312 8.01887 5.19667 8.93558C4.62545 8.09979 4.29139 7.08907 4.29139 6.00033C4.29139 4.91158 4.62545 3.90086 5.19667 3.06507ZM13.8028 8.93557C15.1863 8.01887 15.9942 6.79747 16.4046 6.02534C16.4091 6.01672 16.411 6.01074 16.4119 6.00745C16.4124 6.00529 16.4128 6.00223 16.4128 6.00223L16.4128 6.00033L16.4126 5.99666L16.4119 5.9932C16.411 5.98991 16.4091 5.98393 16.4046 5.97531C15.9942 5.20318 15.1863 3.98179 13.8028 3.06508C14.374 3.90086 14.7081 4.91158 14.7081 6.00033C14.7081 7.08907 14.374 8.09979 13.8028 8.93557ZM5.95806 6.00033C5.95806 4.04432 7.54371 2.45866 9.49972 2.45866C11.4557 2.45866 13.0414 4.04432 13.0414 6.00033C13.0414 7.95633 11.4557 9.54199 9.49972 9.54199C7.54371 9.54199 5.95806 7.95633 5.95806 6.00033Z" fill="#0D894F"/>
</svg>
