<svg width="23" height="26" viewBox="0 0 23 26" fill="none" xmlns="http://www.w3.org/2000/svg">
<path d="M8.91177 10.088C9.62649 10.088 10.2059 10.6674 10.2059 11.3821V19.1468C10.2059 19.8616 9.62649 20.4409 8.91177 20.4409C8.19704 20.4409 7.61765 19.8616 7.61765 19.1468V11.3821C7.61765 10.6674 8.19704 10.088 8.91177 10.088Z" fill="#FF3333"/>
<path d="M15.3824 11.3821C15.3824 10.6674 14.803 10.088 14.0882 10.088C13.3735 10.088 12.7941 10.6674 12.7941 11.3821V19.1468C12.7941 19.8616 13.3735 20.4409 14.0882 20.4409C14.803 20.4409 15.3824 19.8616 15.3824 19.1468V11.3821Z" fill="#FF3333"/>
<path fill-rule="evenodd" clip-rule="evenodd" d="M19.2647 5.23506V3.94095C19.2647 1.79678 17.5265 0.0585938 15.3824 0.0585938H7.61765C5.47348 0.0585938 3.73529 1.79678 3.73529 3.94095V5.23506H1.79412C1.0794 5.23506 0.5 5.81446 0.5 6.52918C0.5 7.2439 1.0794 7.8233 1.79412 7.8233H2.44118V22.0586C2.44118 24.2028 4.17937 25.9409 6.32353 25.9409H16.6765C18.8206 25.9409 20.5588 24.2028 20.5588 22.0586V7.8233H21.2059C21.9206 7.8233 22.5 7.2439 22.5 6.52918C22.5 5.81446 21.9206 5.23506 21.2059 5.23506H19.2647ZM15.3824 2.64683H7.61765C6.90293 2.64683 6.32353 3.22623 6.32353 3.94095V5.23506H16.6765V3.94095C16.6765 3.22623 16.0971 2.64683 15.3824 2.64683ZM17.9706 7.8233H5.02941V22.0586C5.02941 22.7733 5.60881 23.3527 6.32353 23.3527H16.6765C17.3912 23.3527 17.9706 22.7733 17.9706 22.0586V7.8233Z" fill="#FF3333"/>
</svg>
