<svg width="33" height="32" viewBox="0 0 33 32" fill="none" xmlns="http://www.w3.org/2000/svg">
<g clip-path="url(#clip0_367_8767)">
<path d="M16.1699 0C7.33292 0 0.169922 7.163 0.169922 16C0.169922 24.837 7.33292 32 16.1699 32C25.0069 32 32.1699 24.837 32.1699 16C32.1699 7.163 25.0069 0 16.1699 0ZM16.1699 30.032C8.44992 30.032 2.16992 23.72 2.16992 16C2.16992 8.28 8.44992 2 16.1699 2C23.8899 2 30.1699 8.28 30.1699 16C30.1699 23.72 23.8899 30.032 16.1699 30.032ZM23.1799 14.989H11.9159L15.5329 11.372C15.9229 10.982 15.9229 10.348 15.5329 9.958C15.1429 9.568 14.5089 9.568 14.1189 9.958L8.21192 16.02L14.1189 22.083C14.3139 22.278 14.5699 22.376 14.8259 22.376C15.0819 22.376 15.3369 22.278 15.5329 22.083C15.9229 21.693 15.9229 21.06 15.5329 20.669L11.8529 16.989H23.1799C23.7319 16.989 24.1799 16.541 24.1799 15.989C24.1799 15.437 23.7319 14.989 23.1799 14.989Z" fill="#19191A" fill-opacity="0.5"/>
</g>
<defs>
<clipPath id="clip0_367_8767">
<rect width="32" height="32" fill="white" transform="translate(0.169922)"/>
</clipPath>
</defs>
</svg>
