<svg width="33" height="32" viewBox="0 0 33 32" fill="none" xmlns="http://www.w3.org/2000/svg">
<g clip-path="url(#clip0_367_8769)">
<path d="M16.1699 0C25.0069 0 32.1699 7.01682 32.1699 15.6735C32.1699 24.3301 25.0069 31.3469 16.1699 31.3469C7.33292 31.3469 0.169922 24.3301 0.169922 15.6735C0.169922 7.01682 7.33292 0 16.1699 0ZM16.1699 29.4191C23.8899 29.4191 30.1699 23.2359 30.1699 15.6735C30.1699 8.11102 23.8899 1.95918 16.1699 1.95918C8.44992 1.95918 2.16992 8.11102 2.16992 15.6735C2.16992 23.2359 8.44992 29.4191 16.1699 29.4191ZM9.15992 14.6831H20.4239L16.8069 11.1399C16.4169 10.7579 16.4169 10.1368 16.8069 9.75478C17.1969 9.37274 17.8309 9.37274 18.2209 9.75478L24.1279 15.6931L18.2209 21.6323C18.0259 21.8233 17.7699 21.9193 17.5139 21.9193C17.2579 21.9193 17.0029 21.8233 16.8069 21.6323C16.4169 21.2503 16.4169 20.6302 16.8069 20.2472L20.4869 16.6423H9.15992C8.60792 16.6423 8.15992 16.2034 8.15992 15.6627C8.15992 15.122 8.60792 14.6831 9.15992 14.6831Z" fill="#19191A" fill-opacity="0.5"/>
</g>
<defs>
<clipPath id="clip0_367_8769">
<rect width="32" height="31.3469" fill="white" transform="matrix(-1 0 0 1 32.1699 0)"/>
</clipPath>
</defs>
</svg>
