<svg width="33" height="24" viewBox="0 0 33 24" fill="none" xmlns="http://www.w3.org/2000/svg">
<path d="M2.9615 10.7998H30.7852C31.1542 10.7998 31.508 10.9262 31.7689 11.1512C32.0298 11.3762 32.1764 11.6814 32.1764 11.9997C32.1764 12.3179 32.0298 12.6231 31.7689 12.8481C31.508 13.0731 31.1542 13.1995 30.7852 13.1995H2.9615C2.59253 13.1995 2.23868 13.0731 1.97778 12.8481C1.71688 12.6231 1.57031 12.3179 1.57031 11.9997C1.57031 11.6814 1.71688 11.3762 1.97778 11.1512C2.23868 10.9262 2.59253 10.7998 2.9615 10.7998Z" fill="#19191A" fill-opacity="0.5"/>
<path d="M3.53659 12L15.0751 21.9491C15.3363 22.1744 15.4831 22.48 15.4831 22.7986C15.4831 23.1173 15.3363 23.4228 15.0751 23.6481C14.8139 23.8734 14.4596 24 14.0901 24C13.7207 24 13.3664 23.8734 13.1052 23.6481L0.584494 12.8495C0.454938 12.738 0.35215 12.6056 0.282016 12.4599C0.211882 12.3141 0.175781 12.1578 0.175781 12C0.175781 11.8422 0.211882 11.6859 0.282016 11.5401C0.35215 11.3944 0.454938 11.262 0.584494 11.1505L13.1052 0.351871C13.3664 0.126572 13.7207 0 14.0901 0C14.4596 0 14.8139 0.126572 15.0751 0.351871C15.3363 0.577171 15.4831 0.882743 15.4831 1.20136C15.4831 1.51999 15.3363 1.82556 15.0751 2.05086L3.53659 12Z" fill="#19191A" fill-opacity="0.5"/>
</svg>
