<svg width="22" height="24" viewBox="0 0 22 24" fill="none" xmlns="http://www.w3.org/2000/svg">
<path d="M0.725 9H20.6C20.8813 9 21.1625 9.28125 21.1625 9.5625V21.75C21.1625 23.0156 20.1313 24 18.9125 24H2.4125C1.14688 24 0.1625 23.0156 0.1625 21.75V9.5625C0.1625 9.28125 0.396875 9 0.725 9ZM21.1625 6.9375C21.1625 7.26562 20.8813 7.5 20.6 7.5H0.725C0.396875 7.5 0.1625 7.26562 0.1625 6.9375V5.25C0.1625 4.03125 1.14688 3 2.4125 3H4.6625V0.5625C4.6625 0.28125 4.89688 0 5.225 0H7.1C7.38125 0 7.6625 0.28125 7.6625 0.5625V3H13.6625V0.5625C13.6625 0.28125 13.8969 0 14.225 0H16.1C16.3813 0 16.6625 0.28125 16.6625 0.5625V3H18.9125C20.1313 3 21.1625 4.03125 21.1625 5.25V6.9375Z" fill="#19191A"/>
</svg>
