<svg width="18" height="22" viewBox="0 0 18 22" fill="none" xmlns="http://www.w3.org/2000/svg">
<path d="M0 21.3274V11.3274L1.575 6.70239C1.70833 6.26906 1.95833 5.93156 2.325 5.68989C2.69167 5.44823 3.08333 5.32739 3.5 5.32739C3.63333 5.32739 3.76667 5.33989 3.9 5.36489C4.03333 5.38989 4.16667 5.43573 4.3 5.50239L8.45 7.32739H11V9.32739H8L5.3 8.15239L4 12.0774V21.3274H0ZM6 18.3274V16.3274H18V18.3274H6ZM16.5 15.3274C16.0833 15.3274 15.7292 15.1816 15.4375 14.8899C15.1458 14.5982 15 14.2441 15 13.8274C15 13.4107 15.1458 13.0566 15.4375 12.7649C15.7292 12.4732 16.0833 12.3274 16.5 12.3274C16.9167 12.3274 17.2708 12.4732 17.5625 12.7649C17.8542 13.0566 18 13.4107 18 13.8274C18 14.2441 17.8542 14.5982 17.5625 14.8899C17.2708 15.1816 16.9167 15.3274 16.5 15.3274ZM10 15.3274C9.45 15.3274 8.97917 15.1316 8.5875 14.7399C8.19583 14.3482 8 13.8774 8 13.3274V12.3274H6V10.3274H9C9.28333 10.3274 9.52083 10.4232 9.7125 10.6149C9.90417 10.8066 10 11.0441 10 11.3274V12.3274H12V10.3274H14V13.3274C14 13.8774 13.8042 14.3482 13.4125 14.7399C13.0208 15.1316 12.55 15.3274 12 15.3274H10ZM5 4.32739C4.45 4.32739 3.97917 4.13156 3.5875 3.73989C3.19583 3.34823 3 2.87739 3 2.32739C3 1.77739 3.19583 1.30656 3.5875 0.914893C3.97917 0.523226 4.45 0.327393 5 0.327393C5.55 0.327393 6.02083 0.523226 6.4125 0.914893C6.80417 1.30656 7 1.77739 7 2.32739C7 2.87739 6.80417 3.34823 6.4125 3.73989C6.02083 4.13156 5.55 4.32739 5 4.32739Z" fill="#1C1B1F"/>
</svg>
