<svg width="31" height="31" viewBox="0 0 31 31" fill="none" xmlns="http://www.w3.org/2000/svg">
<path d="M25.6035 11.75H14.3535C12.9728 11.75 11.8535 12.8693 11.8535 14.25V25.5C11.8535 26.8807 12.9728 28 14.3535 28H25.6035C26.9842 28 28.1035 26.8807 28.1035 25.5V14.25C28.1035 12.8693 26.9842 11.75 25.6035 11.75Z" stroke="#404040" stroke-width="2" stroke-linecap="round" stroke-linejoin="round"/>
<path d="M6.85352 19.25H5.60352C4.94047 19.25 4.30459 18.9866 3.83575 18.5178C3.36691 18.0489 3.10352 17.413 3.10352 16.75V5.5C3.10352 4.83696 3.36691 4.20107 3.83575 3.73223C4.30459 3.26339 4.94047 3 5.60352 3H16.8535C17.5166 3 18.1524 3.26339 18.6213 3.73223C19.0901 4.20107 19.3535 4.83696 19.3535 5.5V6.75" stroke="#404040" stroke-width="2" stroke-linecap="round" stroke-linejoin="round"/>
</svg>
