<svg width="32" height="32" viewBox="0 0 32 32" fill="#fff" xmlns="http://www.w3.org/2000/svg">
<g clip-path="url(#clip0_1023_657)">
<path fill-rule="evenodd" clip-rule="evenodd" d="M17.3493 8.34616C17.2265 8.09256 17.0347 7.87868 16.7959 7.72903C16.5572 7.57937 16.2811 7.5 15.9993 7.5C15.7175 7.5 15.4414 7.57937 15.2027 7.72903C14.9639 7.87868 14.7721 8.09256 14.6493 8.34616L12.3693 13.0642L7.27731 13.8242C7.00249 13.8654 6.74453 13.9822 6.53222 14.1615C6.3199 14.3408 6.16156 14.5756 6.07486 14.8396C5.98817 15.1036 5.97652 15.3865 6.04123 15.6568C6.10593 15.9271 6.24444 16.174 6.44131 16.3702L10.1413 20.0502L9.26731 25.2502C9.2205 25.5269 9.25228 25.8112 9.35901 26.0708C9.46574 26.3303 9.64315 26.5547 9.87108 26.7185C10.099 26.8822 10.3683 26.9788 10.6484 26.9971C10.9284 27.0154 11.208 26.9548 11.4553 26.8222L15.9993 24.3802L20.5433 26.8202C20.7905 26.9526 21.0698 27.0132 21.3496 26.9949C21.6295 26.9767 21.8986 26.8803 22.1264 26.7168C22.3543 26.5533 22.5317 26.3293 22.6386 26.07C22.7456 25.8108 22.7777 25.5267 22.7313 25.2502L21.8573 20.0462L25.5573 16.3682C25.7542 16.172 25.8927 15.9251 25.9574 15.6548C26.0221 15.3845 26.0104 15.1016 25.9237 14.8376C25.8371 14.5736 25.6787 14.3388 25.4664 14.1595C25.2541 13.9802 24.9961 13.8634 24.7213 13.8222L19.6313 13.0622L17.3513 8.34416L17.3493 8.34616ZM14.7233 15.0842L15.9993 12.4442L17.2753 15.0842C17.3818 15.3041 17.5404 15.4947 17.7374 15.6393C17.9343 15.784 18.1636 15.8783 18.4053 15.9142L21.3233 16.3502L19.1913 18.4682C19.0216 18.6374 18.8949 18.8448 18.8218 19.0731C18.7487 19.3014 18.7314 19.5438 18.7713 19.7802L19.2653 22.7322L16.7093 21.3602C16.491 21.2429 16.2471 21.1815 15.9993 21.1815C15.7515 21.1815 15.5076 21.2429 15.2893 21.3602L12.7333 22.7322L13.2293 19.7802C13.269 19.5437 13.2513 19.3011 13.1779 19.0728C13.1045 18.8445 12.9774 18.6372 12.8073 18.4682L10.6753 16.3482L13.5953 15.9142C13.8367 15.878 14.0655 15.7835 14.2621 15.6389C14.4587 15.4943 14.617 15.3038 14.7233 15.0842Z" fill="#fff"/>
<path fill-rule="evenodd" clip-rule="evenodd" d="M24 1.5C24 1.10218 23.842 0.720644 23.5607 0.43934C23.2794 0.158035 22.8978 0 22.5 0C22.1022 0 21.7206 0.158035 21.4393 0.43934C21.158 0.720644 21 1.10218 21 1.5V2H11V1.5C11 1.10218 10.842 0.720644 10.5607 0.43934C10.2794 0.158035 9.89782 0 9.5 0C9.10218 0 8.72064 0.158035 8.43934 0.43934C8.15804 0.720644 8 1.10218 8 1.5V2H4.5C3.30653 2 2.16193 2.47411 1.31802 3.31802C0.474106 4.16193 0 5.30653 0 6.5L0 27.5C0 28.6935 0.474106 29.8381 1.31802 30.682C2.16193 31.5259 3.30653 32 4.5 32H27.5C28.6935 32 29.8381 31.5259 30.682 30.682C31.5259 29.8381 32 28.6935 32 27.5V6.5C32 5.30653 31.5259 4.16193 30.682 3.31802C29.8381 2.47411 28.6935 2 27.5 2H24V1.5ZM8 6.5V5H4.5C4.10218 5 3.72064 5.15804 3.43934 5.43934C3.15804 5.72064 3 6.10218 3 6.5V27.5C3 28.328 3.672 29 4.5 29H27.5C27.8978 29 28.2794 28.842 28.5607 28.5607C28.842 28.2794 29 27.8978 29 27.5V6.5C29 6.10218 28.842 5.72064 28.5607 5.43934C28.2794 5.15804 27.8978 5 27.5 5H24V6.5C24 6.89782 23.842 7.27936 23.5607 7.56066C23.2794 7.84196 22.8978 8 22.5 8C22.1022 8 21.7206 7.84196 21.4393 7.56066C21.158 7.27936 21 6.89782 21 6.5V5H11V6.5C11 6.89782 10.842 7.27936 10.5607 7.56066C10.2794 7.84196 9.89782 8 9.5 8C9.10218 8 8.72064 7.84196 8.43934 7.56066C8.15804 7.27936 8 6.89782 8 6.5Z" fill="#fff"/>
</g>
<defs>
<clipPath id="clip0_1023_657">
<rect width="32" height="32" fill="white"/>
</clipPath>
</defs>
</svg>
