<svg width="32" height="32" viewBox="0 0 32 32" fill="none" xmlns="http://www.w3.org/2000/svg">
<g clip-path="url(#clip0_288_8673)">
<path d="M15.9993 2.66699C23.3631 2.66699 29.3327 8.63653 29.3327 16.0003C29.3327 23.3641 23.3631 29.3337 15.9993 29.3337C8.63555 29.3337 2.66602 23.3641 2.66602 16.0003C2.66602 8.63653 8.63555 2.66699 15.9993 2.66699ZM15.9993 8.00033C15.2629 8.00033 14.666 8.59729 14.666 9.33366V16.0003C14.666 16.3539 14.8065 16.6931 15.0565 16.9431L19.0565 20.9431C19.5772 21.4638 20.4215 21.4638 20.9421 20.9431C21.4628 20.4225 21.4628 19.5782 20.9421 19.0575L17.3327 15.4481V9.33366C17.3327 8.59729 16.7357 8.00033 15.9993 8.00033Z" fill="#19191A" fill-opacity="0.5"/>
</g>
<defs>
<clipPath id="clip0_288_8673">
<rect width="32" height="32" fill="white"/>
</clipPath>
</defs>
</svg>
