<svg width="32" height="32" viewBox="0 0 32 32" fill="none" xmlns="http://www.w3.org/2000/svg">
<path d="M25.3347 6.66699H24.0013V4.00032C24.0013 3.64671 23.8609 3.30756 23.6108 3.05752C23.3607 2.80746 23.0215 2.66699 22.6679 2.66699C22.3143 2.66699 21.9753 2.80746 21.7252 3.05752C21.4751 3.30756 21.3347 3.64671 21.3347 4.00032V6.66699H10.668V4.00032C10.668 3.64671 10.5275 3.30756 10.2774 3.05752C10.0274 2.80746 9.68825 2.66699 9.33463 2.66699C8.98101 2.66699 8.64188 2.80746 8.39182 3.05752C8.14177 3.30756 8.00129 3.64671 8.00129 4.00032V6.66699H6.66797C5.6071 6.66699 4.58968 7.08842 3.83953 7.83856C3.0894 8.58871 2.66797 9.60612 2.66797 10.667V12.0003H29.3347V10.667C29.3347 9.60612 28.9132 8.58871 28.163 7.83856C27.4129 7.08842 26.3955 6.66699 25.3347 6.66699Z" fill="#19191A" fill-opacity="0.5"/>
<path d="M2.66797 25.3336C2.66797 26.3945 3.0894 27.4119 3.83953 28.1621C4.58968 28.9122 5.6071 29.3336 6.66797 29.3336H25.3347C26.3955 29.3336 27.4129 28.9122 28.163 28.1621C28.9132 27.4119 29.3347 26.3945 29.3347 25.3336V14.667H2.66797V25.3336Z" fill="#19191A" fill-opacity="0.5"/>
</svg>
