<svg width="66" height="66" viewBox="0 0 66 66" fill="none" xmlns="http://www.w3.org/2000/svg">
<circle cx="32.6059" cy="32.6049" r="31.9946" fill="url(#paint0_linear_288_8048)" stroke="white"/>
<path d="M59.3292 31.7258C59.3292 45.9854 47.3796 57.5728 32.6041 57.5728C17.8286 57.5728 5.87891 45.9854 5.87891 31.7258C5.87891 17.4663 17.8286 5.87891 32.6041 5.87891C47.3796 5.87891 59.3292 17.4663 59.3292 31.7258Z" fill="#FF0000" stroke="white"/>
<path d="M52.6747 20.2555C55.0191 19.2211 52.3 23.9658 49.33 36.2393L15.8045 36.2393C14.3194 31.6367 11.7583 22.5644 11.4234 21.3972C11.1267 20.3628 14.7684 22.5389 14.7684 22.5389L23.2296 27.0341C25.2097 23.9658 29.4668 17.2153 30.6548 14.7606C31.8428 12.3059 33.1299 13.7378 33.6249 14.7606L42.6405 27.1057C44.8703 25.964 50.4926 21.2183 52.6747 20.2555Z" fill="url(#paint1_linear_288_8048)" stroke="white" stroke-width="0.4"/>
<path d="M17.6633 44.8219C15.508 44.8219 13.9266 42.7965 14.4493 40.7055C14.818 39.2307 16.1431 38.1961 17.6633 38.1961H47.307C49.4623 38.1961 51.0437 40.2216 50.521 42.3125C50.1523 43.7873 48.8272 44.8219 47.307 44.8219H17.6633Z" fill="url(#paint2_linear_288_8048)" stroke="white" stroke-width="0.4"/>
<defs>
<linearGradient id="paint0_linear_288_8048" x1="32.6059" y1="0.110352" x2="32.6059" y2="65.0995" gradientUnits="userSpaceOnUse">
<stop stop-color="#695900"/>
<stop offset="1" stop-color="#FDBB12"/>
</linearGradient>
<linearGradient id="paint1_linear_288_8048" x1="32.4838" y1="13.4053" x2="32.4838" y2="36.2393" gradientUnits="userSpaceOnUse">
<stop stop-color="#695900"/>
<stop offset="1" stop-color="#FDBB12"/>
</linearGradient>
<linearGradient id="paint2_linear_288_8048" x1="32.4852" y1="37.9961" x2="32.4852" y2="45.0219" gradientUnits="userSpaceOnUse">
<stop stop-color="#695900"/>
<stop offset="1" stop-color="#FDBB12"/>
</linearGradient>
</defs>
</svg>
