<svg width="24" height="24" viewBox="0 0 24 24" fill="none" xmlns="http://www.w3.org/2000/svg">
<path d="M19 5H18V2.99999C18 2.73479 17.8947 2.48043 17.7071 2.29289C17.5196 2.10535 17.2652 2 17 2C16.7348 2 16.4805 2.10535 16.2929 2.29289C16.1054 2.48043 16 2.73479 16 2.99999V5H8V2.99999C8 2.73479 7.89464 2.48043 7.70711 2.29289C7.51957 2.10535 7.26521 2 7 2C6.73478 2 6.48043 2.10535 6.29289 2.29289C6.10535 2.48043 5.99999 2.73479 5.99999 2.99999V5H5C4.20435 5 3.44129 5.31607 2.87867 5.87867C2.31607 6.44129 2 7.20435 2 8V9.00001H22V8C22 7.20435 21.6839 6.44129 21.1213 5.87867C20.5587 5.31607 19.7956 5 19 5Z" fill="#19191A" fill-opacity="0.5"/>
<path d="M2 19C2 19.7957 2.31607 20.5587 2.87867 21.1213C3.44129 21.6839 4.20435 22 5 22H19C19.7956 22 20.5587 21.6839 21.1213 21.1213C21.6839 20.5587 22 19.7957 22 19V11H2V19Z" fill="#19191A" fill-opacity="0.5"/>
</svg>
