<svg width="25" height="24" viewBox="0 0 25 24" fill="none" xmlns="http://www.w3.org/2000/svg">
<path d="M19.3926 5H18.3926V2.99999C18.3926 2.73479 18.2872 2.48043 18.0997 2.29289C17.9122 2.10535 17.6578 2 17.3926 2C17.1274 2 16.873 2.10535 16.6855 2.29289C16.498 2.48043 16.3926 2.73479 16.3926 2.99999V5H8.39258V2.99999C8.39258 2.73479 8.28722 2.48043 8.09968 2.29289C7.91215 2.10535 7.65779 2 7.39258 2C7.12736 2 6.87301 2.10535 6.68547 2.29289C6.49793 2.48043 6.39257 2.73479 6.39257 2.99999V5H5.39258C4.59693 5 3.83386 5.31607 3.27125 5.87867C2.70865 6.44129 2.39258 7.20435 2.39258 8V9.00001H22.3926V8C22.3926 7.20435 22.0765 6.44129 21.5139 5.87867C20.9512 5.31607 20.1882 5 19.3926 5Z" fill="#19191A" fill-opacity="0.5"/>
<path d="M2.39258 19C2.39258 19.7957 2.70865 20.5587 3.27125 21.1213C3.83386 21.6839 4.59693 22 5.39258 22H19.3926C20.1882 22 20.9512 21.6839 21.5139 21.1213C22.0765 20.5587 22.3926 19.7957 22.3926 19V11H2.39258V19Z" fill="#19191A" fill-opacity="0.5"/>
</svg>
