<svg width="18" height="21" viewBox="0 0 18 21" fill="none" xmlns="http://www.w3.org/2000/svg">
<path d="M11.5 16.3276C10.8 16.3276 10.2083 16.086 9.725 15.6026C9.24167 15.1193 9 14.5276 9 13.8276C9 13.1276 9.24167 12.536 9.725 12.0526C10.2083 11.5693 10.8 11.3276 11.5 11.3276C12.2 11.3276 12.7917 11.5693 13.275 12.0526C13.7583 12.536 14 13.1276 14 13.8276C14 14.5276 13.7583 15.1193 13.275 15.6026C12.7917 16.086 12.2 16.3276 11.5 16.3276ZM2 20.3276C1.45 20.3276 0.979167 20.1318 0.5875 19.7401C0.195833 19.3485 0 18.8776 0 18.3276V4.32764C0 3.77764 0.195833 3.3068 0.5875 2.91514C0.979167 2.52347 1.45 2.32764 2 2.32764H3V0.327637H5V2.32764H13V0.327637H15V2.32764H16C16.55 2.32764 17.0208 2.52347 17.4125 2.91514C17.8042 3.3068 18 3.77764 18 4.32764V18.3276C18 18.8776 17.8042 19.3485 17.4125 19.7401C17.0208 20.1318 16.55 20.3276 16 20.3276H2ZM2 18.3276H16V8.32764H2V18.3276ZM2 6.32764H16V4.32764H2V6.32764Z" fill="#1C1B1F"/>
</svg>
