<svg width="103" height="83" viewBox="0 0 103 83" fill="none" xmlns="http://www.w3.org/2000/svg">
<path d="M96.713 59.4167L100.958 61.8002C102.219 62.5082 103 63.8418 103 65.288V82C103 82.5523 102.552 83 102 83H1C0.447716 83 0 82.5523 0 82V32.0389C0 30.909 1.58045 30.6462 1.94617 31.7153L2.72285 33.9857C4.04868 37.8613 9.65129 37.4758 10.4339 33.4551L14.1248 14.4917C14.5446 12.3346 17.2192 11.5436 18.7449 13.1252C20.1939 14.6275 22.7254 14.0015 23.3073 11.9971L26.4637 1.12489C26.487 1.04481 26.5406 0.976941 26.6131 0.935723C27.4013 0.48759 28.3928 0.977401 28.5159 1.87571L35.5597 53.2749C35.9571 56.1752 39.2332 57.6801 41.6925 56.0921L43.3476 55.0233C44.5665 54.2363 46.1044 54.2187 47.4701 54.7083C53.6764 56.9331 57.8798 53.5125 60.3923 49.2972C61.6865 47.1258 65.2856 46.6717 66.5595 48.855C67.8276 51.0284 71.1003 50.5339 71.6698 48.0829L74.3387 36.5964C75.3102 32.4153 81.2896 32.4923 82.1532 36.697L86.3417 57.0914C86.9147 59.8815 90.1505 61.1869 92.5111 59.593C93.7648 58.7466 95.394 58.6762 96.713 59.4167Z" fill="url(#paint0_linear_1002_1556)"/>
<defs>
<linearGradient id="paint0_linear_1002_1556" x1="51.6619" y1="0" x2="51.6619" y2="83" gradientUnits="userSpaceOnUse">
<stop stop-color="#FF5500"/>
<stop offset="1" stop-color="#FF5500" stop-opacity="0"/>
</linearGradient>
</defs>
</svg>
