<svg width="319" height="346" viewBox="0 0 319 346" fill="none" xmlns="http://www.w3.org/2000/svg">
<path d="M270.88 151.479C269.219 122.712 256.636 95.6647 235.704 75.862C214.772 56.0592 187.068 44.9956 158.253 44.9309L158.137 96.5788C173.79 96.6139 188.839 102.624 200.21 113.381C211.581 124.138 218.415 138.831 219.318 154.458L270.88 151.479Z" fill="#FF9E69"/>
<path d="M159.834 44.9458C131.023 44.4781 103.12 55.0281 81.8255 74.4407C60.5308 93.8534 47.4512 120.664 45.2585 149.395L96.7567 153.326C97.9478 137.718 105.053 123.154 116.62 112.609C128.188 102.064 143.345 96.3329 158.996 96.5869L159.834 44.9458Z" fill="#FFD1A7"/>
<path d="M51.347 120.455C45.7142 136.455 43.7539 153.518 45.6111 170.38C47.4683 187.241 53.0956 203.468 62.0759 217.859C71.0562 232.25 83.1595 244.436 97.489 253.514C111.819 262.592 128.007 268.33 144.855 270.302C161.703 272.274 178.779 270.43 194.818 264.907C210.856 259.383 225.447 250.321 237.508 238.393C249.569 226.465 258.791 211.976 264.492 196C270.193 180.023 272.226 162.969 270.441 146.1L219.08 151.536C220.049 160.699 218.945 169.963 215.848 178.642C212.751 187.321 207.742 195.191 201.19 201.671C194.638 208.151 186.713 213.073 178 216.073C169.288 219.074 160.012 220.076 150.86 219.004C141.707 217.933 132.914 214.816 125.129 209.885C117.345 204.953 110.771 198.334 105.893 190.516C101.014 182.699 97.9575 173.884 96.9486 164.725C95.9397 155.566 97.0046 146.297 100.064 137.605L51.347 120.455Z" fill="#2B4DED"/>
<g filter="url(#filter0_d_1008_1680)">
<circle cx="239" cy="83" r="26" fill="white"/>
</g>
<path d="M224.648 79.2V76.878H228.986V90H226.394V79.2H224.648ZM240.295 79.056H234.463V82.134C234.715 81.822 235.075 81.57 235.543 81.378C236.011 81.174 236.509 81.072 237.037 81.072C237.997 81.072 238.783 81.282 239.395 81.702C240.007 82.122 240.451 82.662 240.727 83.322C241.003 83.97 241.141 84.666 241.141 85.41C241.141 86.79 240.745 87.9 239.953 88.74C239.173 89.58 238.057 90 236.605 90C235.237 90 234.145 89.658 233.329 88.974C232.513 88.29 232.051 87.396 231.943 86.292H234.391C234.499 86.772 234.739 87.156 235.111 87.444C235.495 87.732 235.981 87.876 236.569 87.876C237.277 87.876 237.811 87.654 238.171 87.21C238.531 86.766 238.711 86.178 238.711 85.446C238.711 84.702 238.525 84.138 238.153 83.754C237.793 83.358 237.259 83.16 236.551 83.16C236.047 83.16 235.627 83.286 235.291 83.538C234.955 83.79 234.715 84.126 234.571 84.546H232.159V76.842H240.295V79.056ZM243.059 83.268C243.059 81.192 243.431 79.566 244.175 78.39C244.931 77.214 246.179 76.626 247.919 76.626C249.659 76.626 250.901 77.214 251.645 78.39C252.401 79.566 252.779 81.192 252.779 83.268C252.779 85.356 252.401 86.994 251.645 88.182C250.901 89.37 249.659 89.964 247.919 89.964C246.179 89.964 244.931 89.37 244.175 88.182C243.431 86.994 243.059 85.356 243.059 83.268ZM250.295 83.268C250.295 82.38 250.235 81.636 250.115 81.036C250.007 80.424 249.779 79.926 249.431 79.542C249.095 79.158 248.591 78.966 247.919 78.966C247.247 78.966 246.737 79.158 246.389 79.542C246.053 79.926 245.825 80.424 245.705 81.036C245.597 81.636 245.543 82.38 245.543 83.268C245.543 84.18 245.597 84.948 245.705 85.572C245.813 86.184 246.041 86.682 246.389 87.066C246.737 87.438 247.247 87.624 247.919 87.624C248.591 87.624 249.101 87.438 249.449 87.066C249.797 86.682 250.025 86.184 250.133 85.572C250.241 84.948 250.295 84.18 250.295 83.268Z" fill="black"/>
<g filter="url(#filter1_d_1008_1680)">
<circle cx="164" cy="265" r="26" fill="white"/>
</g>
<path d="M149.648 261.2V258.878H153.986V272H151.394V261.2H149.648ZM165.295 261.056H159.463V264.134C159.715 263.822 160.075 263.57 160.543 263.378C161.011 263.174 161.509 263.072 162.037 263.072C162.997 263.072 163.783 263.282 164.395 263.702C165.007 264.122 165.451 264.662 165.727 265.322C166.003 265.97 166.141 266.666 166.141 267.41C166.141 268.79 165.745 269.9 164.953 270.74C164.173 271.58 163.057 272 161.605 272C160.237 272 159.145 271.658 158.329 270.974C157.513 270.29 157.051 269.396 156.943 268.292H159.391C159.499 268.772 159.739 269.156 160.111 269.444C160.495 269.732 160.981 269.876 161.569 269.876C162.277 269.876 162.811 269.654 163.171 269.21C163.531 268.766 163.711 268.178 163.711 267.446C163.711 266.702 163.525 266.138 163.153 265.754C162.793 265.358 162.259 265.16 161.551 265.16C161.047 265.16 160.627 265.286 160.291 265.538C159.955 265.79 159.715 266.126 159.571 266.546H157.159V258.842H165.295V261.056ZM168.059 265.268C168.059 263.192 168.431 261.566 169.175 260.39C169.931 259.214 171.179 258.626 172.919 258.626C174.659 258.626 175.901 259.214 176.645 260.39C177.401 261.566 177.779 263.192 177.779 265.268C177.779 267.356 177.401 268.994 176.645 270.182C175.901 271.37 174.659 271.964 172.919 271.964C171.179 271.964 169.931 271.37 169.175 270.182C168.431 268.994 168.059 267.356 168.059 265.268ZM175.295 265.268C175.295 264.38 175.235 263.636 175.115 263.036C175.007 262.424 174.779 261.926 174.431 261.542C174.095 261.158 173.591 260.966 172.919 260.966C172.247 260.966 171.737 261.158 171.389 261.542C171.053 261.926 170.825 262.424 170.705 263.036C170.597 263.636 170.543 264.38 170.543 265.268C170.543 266.18 170.597 266.948 170.705 267.572C170.813 268.184 171.041 268.682 171.389 269.066C171.737 269.438 172.247 269.624 172.919 269.624C173.591 269.624 174.101 269.438 174.449 269.066C174.797 268.682 175.025 268.184 175.133 267.572C175.241 266.948 175.295 266.18 175.295 265.268Z" fill="black"/>
<defs>
<filter id="filter0_d_1008_1680" x="159" y="4" width="160" height="160" filterUnits="userSpaceOnUse" color-interpolation-filters="sRGB">
<feFlood flood-opacity="0" result="BackgroundImageFix"/>
<feColorMatrix in="SourceAlpha" type="matrix" values="0 0 0 0 0 0 0 0 0 0 0 0 0 0 0 0 0 0 127 0" result="hardAlpha"/>
<feOffset dy="1"/>
<feGaussianBlur stdDeviation="27"/>
<feComposite in2="hardAlpha" operator="out"/>
<feColorMatrix type="matrix" values="0 0 0 0 0 0 0 0 0 0 0 0 0 0 0 0 0 0 0.1 0"/>
<feBlend mode="normal" in2="BackgroundImageFix" result="effect1_dropShadow_1008_1680"/>
<feBlend mode="normal" in="SourceGraphic" in2="effect1_dropShadow_1008_1680" result="shape"/>
</filter>
<filter id="filter1_d_1008_1680" x="84" y="186" width="160" height="160" filterUnits="userSpaceOnUse" color-interpolation-filters="sRGB">
<feFlood flood-opacity="0" result="BackgroundImageFix"/>
<feColorMatrix in="SourceAlpha" type="matrix" values="0 0 0 0 0 0 0 0 0 0 0 0 0 0 0 0 0 0 127 0" result="hardAlpha"/>
<feOffset dy="1"/>
<feGaussianBlur stdDeviation="27"/>
<feComposite in2="hardAlpha" operator="out"/>
<feColorMatrix type="matrix" values="0 0 0 0 0 0 0 0 0 0 0 0 0 0 0 0 0 0 0.1 0"/>
<feBlend mode="normal" in2="BackgroundImageFix" result="effect1_dropShadow_1008_1680"/>
<feBlend mode="normal" in="SourceGraphic" in2="effect1_dropShadow_1008_1680" result="shape"/>
</filter>
</defs>
</svg>
