<svg width="31" height="31" viewBox="0 0 31 31" fill="none" xmlns="http://www.w3.org/2000/svg">
<path d="M23.9435 3.22314L27.6309 6.91061L24.8199 9.72292L21.1324 6.03545L23.9435 3.22314ZM10.4375 20.4166H14.125L23.0818 11.4597L19.3944 7.77225L10.4375 16.7291V20.4166Z" fill="#1975FF"/>
<path d="M23.9575 24.104H10.631C10.599 24.104 10.5659 24.1163 10.5339 24.1163C10.4933 24.1163 10.4528 24.1052 10.411 24.104H6.74933V6.89581H15.1654L17.6237 4.4375H6.74933C5.39357 4.4375 4.29102 5.53882 4.29102 6.89581V24.104C4.29102 25.461 5.39357 26.5623 6.74933 26.5623H23.9575C24.6095 26.5623 25.2348 26.3033 25.6958 25.8423C26.1568 25.3813 26.4158 24.756 26.4158 24.104V13.4497L23.9575 15.908V24.104Z" fill="#1975FF"/>
</svg>
