<svg width="17" height="22" viewBox="0 0 17 22" fill="none" xmlns="http://www.w3.org/2000/svg">
<path d="M8 21.3275C5.31667 19.0442 3.3125 16.9234 1.9875 14.965C0.6625 13.0067 0 11.1942 0 9.52754C0 7.02754 0.804167 5.03587 2.4125 3.55254C4.02083 2.06921 5.88333 1.32754 8 1.32754C8.45 1.32754 8.89583 1.36504 9.3375 1.44004C9.77917 1.51504 10.2083 1.61921 10.625 1.75254L9 3.40254C8.83333 3.36921 8.67083 3.34837 8.5125 3.34004C8.35417 3.33171 8.18333 3.32754 8 3.32754C6.31667 3.32754 4.89583 3.90671 3.7375 5.06504C2.57917 6.22337 2 7.71087 2 9.52754C2 10.7109 2.49167 12.065 3.475 13.59C4.45833 15.115 5.96667 16.8109 8 18.6775C10.0333 16.8109 11.5417 15.115 12.525 13.59C13.5083 12.065 14 10.7109 14 9.52754C14 9.32754 13.9917 9.12754 13.975 8.92754C13.9583 8.72754 13.9333 8.53587 13.9 8.35254L15.55 6.70254C15.7 7.13587 15.8125 7.58587 15.8875 8.05254C15.9625 8.51921 16 9.01087 16 9.52754C16 11.1942 15.3375 13.0067 14.0125 14.965C12.6875 16.9234 10.6833 19.0442 8 21.3275ZM13.2 2.02754L7 8.22754V10.3275H9.1L15.3 4.12754L13.2 2.02754ZM16 3.42754L16.7 2.72754C16.8833 2.54421 16.975 2.31087 16.975 2.02754C16.975 1.74421 16.8833 1.51087 16.7 1.32754L16 0.627539C15.8167 0.444206 15.5833 0.352539 15.3 0.352539C15.0167 0.352539 14.7833 0.444206 14.6 0.627539L13.9 1.32754L16 3.42754Z" fill="#828282"/>
</svg>
