<svg width="28" height="25" viewBox="0 0 28 25" fill="none" xmlns="http://www.w3.org/2000/svg">
<path d="M24.5 22.0922H3.5C3.02167 22.0922 2.625 21.7508 2.625 21.3391C2.625 20.9274 3.02167 20.5859 3.5 20.5859H24.5C24.9783 20.5859 25.375 20.9274 25.375 21.3391C25.375 21.7508 24.9783 22.0922 24.5 22.0922Z" fill="#19191A" fill-opacity="0.5"/>
<path d="M22.1916 3.49657C19.9283 1.54846 17.7116 1.49825 15.39 3.49657L13.9783 4.71163C13.8616 4.81205 13.815 4.97272 13.8616 5.11331C14.7483 7.77439 17.2216 9.90325 20.3133 10.6664C20.36 10.6765 20.4066 10.6865 20.4533 10.6865C20.5816 10.6865 20.6983 10.6463 20.7916 10.566L22.1916 9.35095C23.3466 8.36686 23.9066 7.41288 23.9066 6.44887C23.9183 5.45473 23.3583 4.49071 22.1916 3.49657Z" fill="#19191A" fill-opacity="0.5"/>
<path d="M18.2117 11.5787C17.8734 11.4381 17.5467 11.2975 17.2317 11.1369C16.975 11.0063 16.73 10.8657 16.485 10.7151C16.2867 10.6047 16.0534 10.444 15.8317 10.2833C15.8084 10.2733 15.7267 10.213 15.6334 10.1327C15.2484 9.8515 14.8167 9.49 14.4317 9.08832C14.3967 9.06824 14.3384 8.99795 14.2567 8.90757C14.14 8.78707 13.9417 8.58623 13.7667 8.35527C13.6267 8.20464 13.4634 7.98372 13.3117 7.7628C13.125 7.49167 12.9617 7.22054 12.7984 6.93937C12.7736 6.89379 12.7497 6.84844 12.7266 6.80335C12.5544 6.46863 12.0473 6.37078 11.7466 6.62961L5.06338 12.3821C4.91171 12.5126 4.77171 12.7636 4.73671 12.9344L4.10671 16.7804C3.99005 17.4632 4.21171 18.1059 4.70171 18.5377C5.12171 18.8892 5.70505 19.0799 6.33505 19.0799C6.47505 19.0799 6.61505 19.0699 6.75505 19.0498L11.235 18.5076C11.445 18.4774 11.7367 18.3569 11.8767 18.2264L18.5515 12.4812C18.8544 12.2205 18.7402 11.7732 18.3463 11.6285C18.302 11.6123 18.2571 11.5956 18.2117 11.5787Z" fill="#19191A" fill-opacity="0.5"/>
</svg>
