<svg width="22" height="21" viewBox="0 0 22 21" fill="none" xmlns="http://www.w3.org/2000/svg">
<path d="M11.0001 20.3525C10.7334 20.3525 10.4793 20.3025 10.2376 20.2025C9.99593 20.1025 9.7751 19.9608 9.5751 19.7775L1.5501 11.7525C1.36676 11.5525 1.2251 11.3317 1.1251 11.09C1.0251 10.8483 0.975098 10.5942 0.975098 10.3275C0.975098 10.0608 1.0251 9.80249 1.1251 9.55249C1.2251 9.30249 1.36676 9.08582 1.5501 8.90249L9.5751 0.87749C9.7751 0.67749 9.99593 0.531657 10.2376 0.43999C10.4793 0.348324 10.7334 0.30249 11.0001 0.30249C11.2668 0.30249 11.5251 0.348324 11.7751 0.43999C12.0251 0.531657 12.2418 0.67749 12.4251 0.87749L20.4501 8.90249C20.6501 9.08582 20.7959 9.30249 20.8876 9.55249C20.9793 9.80249 21.0251 10.0608 21.0251 10.3275C21.0251 10.5942 20.9793 10.8483 20.8876 11.09C20.7959 11.3317 20.6501 11.5525 20.4501 11.7525L12.4251 19.7775C12.2418 19.9608 12.0251 20.1025 11.7751 20.2025C11.5251 20.3025 11.2668 20.3525 11.0001 20.3525ZM11.0001 18.3525L19.0251 10.3275L11.0001 2.30249L2.9751 10.3275L11.0001 18.3525ZM10.0001 11.3275H12.0001V5.32749H10.0001V11.3275ZM11.0001 14.3275C11.2834 14.3275 11.5209 14.2317 11.7126 14.04C11.9043 13.8483 12.0001 13.6108 12.0001 13.3275C12.0001 13.0442 11.9043 12.8067 11.7126 12.615C11.5209 12.4233 11.2834 12.3275 11.0001 12.3275C10.7168 12.3275 10.4793 12.4233 10.2876 12.615C10.0959 12.8067 10.0001 13.0442 10.0001 13.3275C10.0001 13.6108 10.0959 13.8483 10.2876 14.04C10.4793 14.2317 10.7168 14.3275 11.0001 14.3275Z" fill="#1C1B1F"/>
</svg>
