<svg width="25" height="26" viewBox="0 0 25 26" fill="none" xmlns="http://www.w3.org/2000/svg">
<path d="M6.3733 2.6267C5.2412 3.77976 5.2412 5.64563 6.39427 6.7987L8.91004 9.31447C11.2791 11.6835 11.2791 15.541 8.91004 17.91L4.29779 13.2978C3.11327 12.1133 2.51578 10.5514 2.51578 9C2.51578 7.4486 3.11327 5.88673 4.29779 4.70221L6.34185 2.65815C6.35234 2.64766 6.36282 2.63718 6.3733 2.6267Z" fill="#FF0000" stroke="white" stroke-width="2" stroke-miterlimit="10"/>
<path d="M8.38501 8.78931L6.39336 6.79765C5.24029 5.64459 5.22981 3.7892 6.37239 2.62566C7.50449 1.51452 9.30746 1.53549 10.4291 2.6571C10.9951 3.22315 11.2782 3.9674 11.2782 4.70117C11.2782 5.43494 10.9951 6.17919 10.4291 6.74524L9.95737 7.21695" fill="#FF0000"/>
<path d="M8.38501 8.78931L6.39336 6.79765C5.24029 5.64459 5.22981 3.7892 6.37239 2.62566C7.50449 1.51452 9.30746 1.53549 10.4291 2.6571C10.9951 3.22315 11.2782 3.9674 11.2782 4.70117C11.2782 5.43494 10.9951 6.17919 10.4291 6.74524L9.95737 7.21695" stroke="white" stroke-width="2" stroke-miterlimit="10"/>
<path d="M18.2714 23.2245C19.4035 22.0714 19.4035 20.2056 18.2504 19.0525L15.7346 16.5367C13.3656 14.1677 13.3656 10.3102 15.7346 7.94115L20.3469 12.5534C21.5314 13.7379 22.1289 15.2998 22.1289 16.8512C22.1289 18.4026 21.5314 19.9645 20.3469 21.149L18.3028 23.1931C18.2819 23.214 18.2714 23.2245 18.2714 23.2245Z" fill="#FF0000" stroke="white" stroke-width="2" stroke-miterlimit="10"/>
<path d="M16.2463 17.071L18.238 19.0627C19.3911 20.2158 19.4015 22.0711 18.259 23.2347C17.1269 24.3458 15.3239 24.3249 14.2023 23.2032C13.6362 22.6372 13.3532 21.8929 13.3532 21.1592C13.3532 20.4254 13.6362 19.6812 14.2023 19.1151L14.6845 18.6329" fill="#FF0000"/>
<path d="M16.2463 17.071L18.238 19.0627C19.3911 20.2158 19.4015 22.0711 18.259 23.2347C17.1269 24.3458 15.3239 24.3249 14.2023 23.2032C13.6362 22.6372 13.3532 21.8929 13.3532 21.1592C13.3532 20.4254 13.6362 19.6812 14.2023 19.1151L14.6845 18.6329" stroke="white" stroke-width="2" stroke-miterlimit="10"/>
</svg>
