<svg width="24" height="18" viewBox="0 0 24 18" fill="none" xmlns="http://www.w3.org/2000/svg">
<path fill-rule="evenodd" clip-rule="evenodd" d="M12 0C19.1447 0 22.5256 5.28424 23.7158 7.75463C24.0947 8.54125 24.0947 9.45875 23.7158 10.2454C22.5256 12.7158 19.1447 18 12 18C4.85532 18 1.47443 12.7158 0.284235 10.2454C-0.0947454 9.45875 -0.094745 8.54125 0.284236 7.75463C1.47443 5.28424 4.85532 0 12 0ZM5.98161 4.47132C4.04653 5.88567 2.91659 7.77012 2.34265 8.96141C2.33624 8.97471 2.3336 8.98394 2.33245 8.98901C2.33128 8.99416 2.33106 9 2.33106 9C2.33106 9 2.33128 9.00584 2.33245 9.011C2.3336 9.01606 2.33624 9.02529 2.34265 9.03859C2.91659 10.2299 4.04653 12.1143 5.98161 13.5287C5.18269 12.2392 4.71545 10.6798 4.71545 9C4.71545 7.32022 5.18269 5.76082 5.98161 4.47132ZM18.0184 13.5287C19.9535 12.1143 21.0834 10.2299 21.6574 9.0386C21.6638 9.02529 21.6664 9.01607 21.6675 9.011C21.6683 9.00766 21.6688 9.00294 21.6688 9.00294L21.6689 9L21.6685 8.99434L21.6675 8.989C21.6664 8.98393 21.6638 8.97471 21.6574 8.9614C21.0834 7.77012 19.9535 5.88568 18.0184 4.47134C18.8173 5.76083 19.2846 7.32023 19.2846 9C19.2846 10.6798 18.8173 12.2392 18.0184 13.5287ZM7.04651 9C7.04651 5.98216 9.26427 3.53571 12 3.53571C14.7357 3.53571 16.9535 5.98216 16.9535 9C16.9535 12.0178 14.7357 14.4643 12 14.4643C9.26427 14.4643 7.04651 12.0178 7.04651 9Z" fill="#19191A"/>
</svg>
