<svg width="28" height="20" viewBox="0 0 28 20" fill="none" xmlns="http://www.w3.org/2000/svg">
<path d="M14 15.5C15.5625 15.5 16.8906 14.9531 17.9844 13.8594C19.0781 12.7656 19.625 11.4375 19.625 9.875C19.625 8.3125 19.0781 6.98438 17.9844 5.89062C16.8906 4.79688 15.5625 4.25 14 4.25C12.4375 4.25 11.1094 4.79688 10.0156 5.89062C8.92188 6.98438 8.375 8.3125 8.375 9.875C8.375 11.4375 8.92188 12.7656 10.0156 13.8594C11.1094 14.9531 12.4375 15.5 14 15.5ZM14 13.25C13.0625 13.25 12.2656 12.9219 11.6094 12.2656C10.9531 11.6094 10.625 10.8125 10.625 9.875C10.625 8.9375 10.9531 8.14062 11.6094 7.48438C12.2656 6.82812 13.0625 6.5 14 6.5C14.9375 6.5 15.7344 6.82812 16.3906 7.48438C17.0469 8.14062 17.375 8.9375 17.375 9.875C17.375 10.8125 17.0469 11.6094 16.3906 12.2656C15.7344 12.9219 14.9375 13.25 14 13.25ZM14 19.25C10.9583 19.25 8.1875 18.401 5.6875 16.7031C3.1875 15.0052 1.375 12.7292 0.25 9.875C1.375 7.02083 3.1875 4.74479 5.6875 3.04688C8.1875 1.34896 10.9583 0.5 14 0.5C17.0417 0.5 19.8125 1.34896 22.3125 3.04688C24.8125 4.74479 26.625 7.02083 27.75 9.875C26.625 12.7292 24.8125 15.0052 22.3125 16.7031C19.8125 18.401 17.0417 19.25 14 19.25ZM14 16.75C16.3542 16.75 18.5156 16.1302 20.4844 14.8906C22.4531 13.651 23.9583 11.9792 25 9.875C23.9583 7.77083 22.4531 6.09896 20.4844 4.85938C18.5156 3.61979 16.3542 3 14 3C11.6458 3 9.48438 3.61979 7.51562 4.85938C5.54688 6.09896 4.04167 7.77083 3 9.875C4.04167 11.9792 5.54688 13.651 7.51562 14.8906C9.48438 16.1302 11.6458 16.75 14 16.75Z" fill="#828282"/>
</svg>
