<svg width="32" height="33" viewBox="0 0 32 33" fill="none" xmlns="http://www.w3.org/2000/svg">
<path fill-rule="evenodd" clip-rule="evenodd" d="M27.5175 11.7891H14.8012H11.495L11.7626 13.0872C16.7113 13.4183 20.3593 15.543 22.1502 17.6121C22.839 18.4068 23.3211 19.2572 23.5728 20.0864C23.9411 21.2998 23.851 22.4813 23.2734 23.5198C23.1993 23.6549 23.1171 23.7848 23.0297 23.9119C23.1383 24.145 23.2205 24.3782 23.2867 24.6034C23.3079 24.6643 23.3291 24.7279 23.345 24.7915H23.3476C23.4324 25.0908 23.4748 25.3822 23.4748 25.671C23.4748 25.7717 23.4695 25.7399 23.4642 25.8273L23.4668 25.8988H23.4748C23.4748 25.822 23.4748 25.8512 23.4748 25.8988C23.4748 25.973 23.4721 26.0498 23.4668 26.1267H27.5016L30.8264 11.7944H27.5175V11.7891ZM0.845103 28.8448C7.1741 28.8342 13.5005 28.8262 19.8295 28.8448C20.2056 28.8474 20.5156 29.1547 20.5156 29.5309C20.5156 30.5535 20.0864 32.5563 17.7737 32.5563C12.817 32.5563 7.86025 32.5563 2.90355 32.5563C0.590778 32.5563 0.161603 30.5562 0.161603 29.5309C0.158954 29.1521 0.468913 28.8448 0.845103 28.8448ZM15.0185 18.2982C15.6013 18.2982 16.0729 18.7698 16.0729 19.3526C16.0729 19.9354 15.6013 20.407 15.0185 20.407C14.4356 20.407 13.9641 19.9354 13.9641 19.3526C13.9641 18.7698 14.4356 18.2982 15.0185 18.2982ZM5.823 18.3724C6.40583 18.3724 6.87739 18.8439 6.87739 19.4268C6.87739 20.0096 6.40583 20.4812 5.823 20.4812C5.24017 20.4812 4.76861 20.0096 4.76861 19.4268C4.76861 18.8439 5.24017 18.3724 5.823 18.3724ZM10.3823 17.3657C10.9651 17.3657 11.4367 17.8372 11.4367 18.4201C11.4367 19.0029 10.9651 19.4745 10.3823 19.4745C9.79949 19.4745 9.32792 19.0029 9.32792 18.4201C9.33057 17.8372 9.80214 17.3657 10.3823 17.3657ZM18.934 22.8204H1.96308C0.884841 22.8204 0 21.9382 0 20.86C0 18.0677 5.56602 16.0384 10.2366 15.9907C19.4321 15.898 23.5569 22.8204 18.934 22.8204ZM20.4706 25.5094C20.4997 25.5597 20.5156 25.6101 20.5156 25.6684C20.5156 25.7028 20.513 25.7425 20.513 25.7823C20.5156 25.822 20.5156 25.8591 20.5156 25.8962C20.5156 25.9518 20.4997 26.0048 20.4706 26.0551C20.3143 26.736 19.689 27.6261 17.7737 27.6261C12.817 27.6261 7.86025 27.6261 2.90355 27.6261C0.985512 27.6261 0.362944 26.736 0.20664 26.0551C0.177498 26.0048 0.161603 25.9545 0.161603 25.8962C0.161603 25.8617 0.164252 25.822 0.164252 25.7823C0.161603 25.7425 0.161603 25.7054 0.161603 25.6684C0.161603 25.6127 0.177498 25.5597 0.20664 25.5094C0.362944 24.8285 0.985512 23.9384 2.90355 23.9384H10.6049L13.4448 26.8711L16.2662 23.9384H17.7763C19.6917 23.9411 20.3143 24.8312 20.4706 25.5094ZM23.4642 25.8962C23.4695 26.1267 23.4721 25.981 23.4721 25.8962H23.4642ZM11.5188 5.90777H19.8401L20.7461 1.88095C21.0084 0.908685 21.7713 0.365593 23.1171 0C24.259 0 25.4008 0 26.5399 0C27.0618 0.10332 27.3639 0.466264 27.4433 1.09148C27.4433 1.44383 27.4433 1.79353 27.4433 2.14587C27.2711 2.72076 26.9241 2.95389 26.3889 3.04926H23.5331L22.9264 5.90777H30.7999C31.4622 5.90777 32 6.44822 32 7.10787V8.47223C32 9.13453 31.4596 9.67232 30.7999 9.67232H11.5188C10.8565 9.67232 10.3187 9.13188 10.3187 8.47223V7.10787C10.3187 6.44822 10.8592 5.90777 11.5188 5.90777ZM22.884 32.2914H24.3172H25.1438C26.1081 32.0848 26.7784 31.6291 27.0618 30.6727L27.2791 28.3997H23.292C23.4112 28.7573 23.4748 29.1362 23.4748 29.5309C23.4748 30.2621 23.3397 31.2874 22.884 32.2914Z" fill="#19191A" fill-opacity="0.5"/>
</svg>
