<svg width="15" height="21" viewBox="0 0 15 21" fill="none" xmlns="http://www.w3.org/2000/svg">
<path d="M3 20.3274V11.1774C2.15 10.9441 1.4375 10.4774 0.8625 9.77739C0.2875 9.07739 0 8.26073 0 7.32739V0.327393H2V7.32739H3V0.327393H5V7.32739H6V0.327393H8V7.32739C8 8.26073 7.7125 9.07739 7.1375 9.77739C6.5625 10.4774 5.85 10.9441 5 11.1774V20.3274H3ZM13 20.3274V12.3274H10V5.32739C10 3.94406 10.4875 2.76489 11.4625 1.78989C12.4375 0.814893 13.6167 0.327393 15 0.327393V20.3274H13Z" fill="#1C1B1F"/>
</svg>
