<svg width="30" height="30" viewBox="0 0 30 30" fill="none" xmlns="http://www.w3.org/2000/svg">
<g clip-path="url(#clip0_503_929)">
<path d="M6.64863 18.1391L5.60438 22.0374L1.78764 22.1182C0.646992 20.0025 0 17.582 0 15.0097C0 12.5223 0.604922 10.1767 1.67719 8.11133H1.67801L5.07598 8.7343L6.56449 12.1119C6.25295 13.0201 6.08314 13.9951 6.08314 15.0097C6.08326 16.1108 6.28271 17.1658 6.64863 18.1391Z" fill="#FBBB00"/>
<path d="M29.7382 12.208C29.9105 13.1154 30.0003 14.0525 30.0003 15.0102C30.0003 16.0841 29.8874 17.1316 29.6723 18.1421C28.9421 21.5805 27.0341 24.583 24.391 26.7077L24.3902 26.7069L20.1103 26.4885L19.5045 22.7072C21.2584 21.6786 22.629 20.069 23.351 18.1421H15.3301V12.208H23.468H29.7382Z" fill="#518EF8"/>
<path d="M24.3903 26.706L24.3911 26.7068C21.8205 28.773 18.5551 30.0092 15.0004 30.0092C9.28809 30.0092 4.32162 26.8164 1.78809 22.1178L6.64908 18.1387C7.91582 21.5194 11.1771 23.926 15.0004 23.926C16.6438 23.926 18.1834 23.4818 19.5046 22.7062L24.3903 26.706Z" fill="#ff0000"/>
<path d="M24.574 3.46305L19.7147 7.44133C18.3474 6.58668 16.7311 6.09297 14.9996 6.09297C11.0897 6.09297 7.7674 8.60998 6.56412 12.112L1.67758 8.11141H1.67676C4.1732 3.29822 9.2023 0.00976562 14.9996 0.00976562C18.6391 0.00976562 21.9762 1.30621 24.574 3.46305Z" fill="#F14336"/>
</g>
<defs>
<clipPath id="clip0_503_929">
<rect width="30" height="30" fill="white" transform="translate(0 0.00976562)"/>
</clipPath>
</defs>
</svg>
