<svg width="24" height="24" viewBox="0 0 24 24" fill="none" xmlns="http://www.w3.org/2000/svg">
<path d="M11.6137 3.33821L12 3.80843L12.3863 3.33821C13.5661 1.90232 15.3376 1.0459 17.2289 1.0459C20.6864 1.0459 23.5 3.85949 23.5 7.31696C23.5 10.0507 21.861 13.3139 18.4501 17.0297C15.8344 19.8793 12.9839 22.0898 12.1747 22.6978L11.9998 22.8291L11.8249 22.6977C11.0158 22.0898 8.16542 19.8793 5.54972 17.0296L5.18136 17.3677L5.54971 17.0296C2.13892 13.3138 0.5 10.0506 0.5 7.31696C0.5 3.85949 3.31364 1.0459 6.77106 1.0459C8.66244 1.0459 10.4339 1.90232 11.6137 3.33821Z" stroke="#ff0000"/>
</svg>
