<svg width="28" height="30" viewBox="0 0 28 30" fill="none" xmlns="http://www.w3.org/2000/svg">
<path fill-rule="evenodd" clip-rule="evenodd" d="M3.58272 14.1714C3.37271 14.6783 3.33268 14.9374 3.33268 14.9997V25.6687C3.33268 26.4035 3.92804 26.9997 4.66602 26.9997H8.66602V18.9997C8.66602 17.5269 9.85992 16.333 11.3327 16.333H16.666C18.1388 16.333 19.3327 17.5269 19.3327 18.9997V26.9997H23.3327C24.0707 26.9997 24.666 26.4035 24.666 25.6687V14.9997C24.666 14.9374 24.626 14.6783 24.416 14.1714C24.2209 13.7005 23.9251 13.1231 23.5389 12.4697C22.7679 11.1647 21.686 9.63966 20.4751 8.18658C19.2613 6.73018 17.9512 5.38593 16.7329 4.41906C16.124 3.93573 15.5641 3.56778 15.0733 3.32554C14.5713 3.07783 14.2181 2.99967 13.9993 2.99967C13.7805 2.99967 13.4273 3.07783 12.9253 3.32554C12.4345 3.56778 11.8747 3.93573 11.2657 4.41906C10.0475 5.38593 8.73732 6.73018 7.52364 8.18658C6.31275 9.63966 5.23083 11.1647 4.45975 12.4697C4.07359 13.1231 3.77782 13.7005 3.58272 14.1714ZM11.7452 0.934221C12.4464 0.588181 13.2181 0.333008 13.9993 0.333008C14.7805 0.333008 15.5523 0.588181 16.2535 0.934221C16.9657 1.28573 17.6872 1.77195 18.3907 2.33029C19.7975 3.44675 21.2373 4.93583 22.5236 6.47943C23.8128 8.02635 24.9808 9.66794 25.8348 11.113C26.2611 11.8345 26.6216 12.5279 26.8796 13.1509C27.1227 13.7377 27.3327 14.3953 27.3327 14.9997V25.6687C27.3327 27.8795 25.5403 29.6663 23.3327 29.6663H19.3327C17.8599 29.6663 16.666 28.4725 16.666 26.9997V18.9997H11.3327V26.9997C11.3327 28.4725 10.1388 29.6663 8.66602 29.6663H4.66602C2.45847 29.6663 0.666016 27.8795 0.666016 25.6687V14.9997C0.666016 14.3953 0.875989 13.7377 1.11911 13.1509C1.37714 12.5279 1.7376 11.8345 2.16395 11.113C3.01787 9.66794 4.18595 8.02635 5.47506 6.47943C6.76138 4.93583 8.20123 3.44675 9.60797 2.33029C10.3115 1.77195 11.033 1.28573 11.7452 0.934221Z" fill="white"/>
</svg>
