<svg width="32" height="32" viewBox="0 0 32 32" fill="none" xmlns="http://www.w3.org/2000/svg">
<path fill-rule="evenodd" clip-rule="evenodd" d="M17.3503 8.34616C17.2275 8.09256 17.0357 7.87868 16.7969 7.72903C16.5582 7.57937 16.2821 7.5 16.0003 7.5C15.7185 7.5 15.4424 7.57937 15.2036 7.72903C14.9649 7.87868 14.7731 8.09256 14.6503 8.34616L12.3703 13.0642L7.27828 13.8242C7.00346 13.8654 6.74551 13.9822 6.53319 14.1615C6.32087 14.3408 6.16253 14.5756 6.07584 14.8396C5.98914 15.1036 5.9775 15.3865 6.0422 15.6568C6.10691 15.9271 6.24542 16.174 6.44228 16.3702L10.1423 20.0502L9.26828 25.2502C9.22148 25.5269 9.25325 25.8112 9.35998 26.0708C9.46672 26.3303 9.64413 26.5547 9.87205 26.7185C10.1 26.8822 10.3693 26.9788 10.6493 26.9971C10.9294 27.0154 11.209 26.9548 11.4563 26.8222L16.0003 24.3802L20.5443 26.8202C20.7914 26.9526 21.0708 27.0132 21.3506 26.9949C21.6305 26.9767 21.8996 26.8803 22.1274 26.7168C22.3552 26.5533 22.5327 26.3293 22.6396 26.07C22.7465 25.8108 22.7786 25.5267 22.7323 25.2502L21.8583 20.0462L25.5583 16.3682C25.7551 16.172 25.8937 15.9251 25.9584 15.6548C26.0231 15.3845 26.0114 15.1016 25.9247 14.8376C25.838 14.5736 25.6797 14.3388 25.4674 14.1595C25.2551 13.9802 24.9971 13.8634 24.7223 13.8222L19.6323 13.0622L17.3523 8.34416L17.3503 8.34616ZM14.7243 15.0842L16.0003 12.4442L17.2763 15.0842C17.3828 15.3041 17.5414 15.4947 17.7383 15.6393C17.9353 15.784 18.1646 15.8783 18.4063 15.9142L21.3243 16.3502L19.1923 18.4682C19.0225 18.6374 18.8958 18.8448 18.8228 19.0731C18.7497 19.3014 18.7324 19.5438 18.7723 19.7802L19.2663 22.7322L16.7103 21.3602C16.492 21.2429 16.2481 21.1815 16.0003 21.1815C15.7525 21.1815 15.5086 21.2429 15.2903 21.3602L12.7343 22.7322L13.2303 19.7802C13.2699 19.5437 13.2523 19.3011 13.1789 19.0728C13.1055 18.8445 12.9784 18.6372 12.8083 18.4682L10.6763 16.3482L13.5963 15.9142C13.8376 15.878 14.0665 15.7835 14.2631 15.6389C14.4597 15.4943 14.618 15.3038 14.7243 15.0842Z" fill="#19191A"/>
<path fill-rule="evenodd" clip-rule="evenodd" d="M24 1.5C24 1.10218 23.842 0.720644 23.5607 0.43934C23.2794 0.158035 22.8978 0 22.5 0C22.1022 0 21.7206 0.158035 21.4393 0.43934C21.158 0.720644 21 1.10218 21 1.5V2H11V1.5C11 1.10218 10.842 0.720644 10.5607 0.43934C10.2794 0.158035 9.89782 0 9.5 0C9.10218 0 8.72064 0.158035 8.43934 0.43934C8.15804 0.720644 8 1.10218 8 1.5V2H4.5C3.30653 2 2.16193 2.47411 1.31802 3.31802C0.474106 4.16193 0 5.30653 0 6.5L0 27.5C0 28.6935 0.474106 29.8381 1.31802 30.682C2.16193 31.5259 3.30653 32 4.5 32H27.5C28.6935 32 29.8381 31.5259 30.682 30.682C31.5259 29.8381 32 28.6935 32 27.5V6.5C32 5.30653 31.5259 4.16193 30.682 3.31802C29.8381 2.47411 28.6935 2 27.5 2H24V1.5ZM8 6.5V5H4.5C4.10218 5 3.72064 5.15804 3.43934 5.43934C3.15804 5.72064 3 6.10218 3 6.5V27.5C3 28.328 3.672 29 4.5 29H27.5C27.8978 29 28.2794 28.842 28.5607 28.5607C28.842 28.2794 29 27.8978 29 27.5V6.5C29 6.10218 28.842 5.72064 28.5607 5.43934C28.2794 5.15804 27.8978 5 27.5 5H24V6.5C24 6.89782 23.842 7.27936 23.5607 7.56066C23.2794 7.84196 22.8978 8 22.5 8C22.1022 8 21.7206 7.84196 21.4393 7.56066C21.158 7.27936 21 6.89782 21 6.5V5H11V6.5C11 6.89782 10.842 7.27936 10.5607 7.56066C10.2794 7.84196 9.89782 8 9.5 8C9.10218 8 8.72064 7.84196 8.43934 7.56066C8.15804 7.27936 8 6.89782 8 6.5Z" fill="#19191A"/>
</svg>
