<svg width="32" height="32" viewBox="0 0 32 32" fill="none" xmlns="http://www.w3.org/2000/svg">
<rect width="32" height="32" rx="16" fill="#006699"/>
<path d="M12.3191 22.4839V13.8398H9.4485V22.4839H12.3194H12.3191ZM10.8844 12.6598C11.8852 12.6598 12.5083 11.996 12.5083 11.1665C12.4896 10.3181 11.8852 9.67285 10.9034 9.67285C9.92097 9.67285 9.2793 10.3181 9.2793 11.1664C9.2793 11.996 9.90216 12.6597 10.8656 12.6597H10.8842L10.8844 12.6598ZM13.9081 22.4839H16.7784V17.6572C16.7784 17.3992 16.7972 17.1405 16.873 16.9562C17.0804 16.4398 17.5528 15.9053 18.3459 15.9053C19.3844 15.9053 19.8001 16.6979 19.8001 17.8601V22.4839H22.6704V17.5277C22.6704 14.8727 21.2544 13.6372 19.3658 13.6372C17.8174 13.6372 17.1374 14.5033 16.7596 15.0933H16.7787V13.8401H13.9082C13.9457 14.651 13.908 22.4842 13.908 22.4842L13.9081 22.4839Z" fill="white"/>
</svg>
