<svg width="24" height="24" viewBox="0 0 24 24" fill="none" xmlns="http://www.w3.org/2000/svg">
<path fill-rule="evenodd" clip-rule="evenodd" d="M3.88585 10.7983C1.73702 8.75247 2.00531 5.265 4.68829 3.57841C6.63988 2.35137 9.26159 2.71996 10.9155 4.29458L11.6824 5.02473C12.1614 5.48079 12.9369 5.48079 13.4147 5.02473C13.8937 4.56984 13.8937 3.83151 13.4147 3.37546L12.7666 2.75844C9.9207 0.048934 5.2457 -0.226337 2.31526 2.40036C-0.716875 5.1192 -0.770775 9.66459 2.15355 12.4476L3.01969 13.2722C3.49748 13.7283 4.2742 13.7283 4.75199 13.2722C5.231 12.8173 5.231 12.079 4.75199 11.6229L3.88585 10.7983ZM21.6878 11.2521L21.063 10.6572C20.584 10.2011 19.8085 10.2011 19.3307 10.6572C18.8517 11.1121 18.8517 11.8504 19.3307 12.3065L20.0976 13.0366C21.7515 14.6112 22.1374 17.1073 20.8499 18.9653C19.0784 21.5197 15.4141 21.774 13.2665 19.7293L12.4003 18.9047C11.9213 18.4486 11.1458 18.4486 10.668 18.9047C10.189 19.3596 10.189 20.0979 10.668 20.554L11.5342 21.3786C14.4499 24.1546 19.207 24.1114 22.0639 21.2468C24.8486 18.4556 24.5472 13.9744 21.6878 11.2521ZM16.7311 18.08L5.61813 7.49979C5.14034 7.04374 5.14034 6.30542 5.61813 5.84937C6.09715 5.39448 6.87264 5.39448 7.35043 5.84937L18.4646 16.4296C18.9424 16.8857 18.9424 17.624 18.4646 18.08C17.9855 18.5349 17.2101 18.5349 16.7311 18.08Z" fill="#19191A" fill-opacity="0.5"/>
</svg>
