<svg width="20" height="17" viewBox="0 0 20 17" fill="none" xmlns="http://www.w3.org/2000/svg">
<path d="M10 13.3274C10.2833 13.3274 10.5208 13.2316 10.7125 13.0399C10.9042 12.8482 11 12.6107 11 12.3274C11 12.0441 10.9042 11.8066 10.7125 11.6149C10.5208 11.4232 10.2833 11.3274 10 11.3274C9.71667 11.3274 9.47917 11.4232 9.2875 11.6149C9.09583 11.8066 9 12.0441 9 12.3274C9 12.6107 9.09583 12.8482 9.2875 13.0399C9.47917 13.2316 9.71667 13.3274 10 13.3274ZM10 9.32739C10.2833 9.32739 10.5208 9.23156 10.7125 9.03989C10.9042 8.84823 11 8.61073 11 8.32739C11 8.04406 10.9042 7.80656 10.7125 7.61489C10.5208 7.42323 10.2833 7.32739 10 7.32739C9.71667 7.32739 9.47917 7.42323 9.2875 7.61489C9.09583 7.80656 9 8.04406 9 8.32739C9 8.61073 9.09583 8.84823 9.2875 9.03989C9.47917 9.23156 9.71667 9.32739 10 9.32739ZM10 5.32739C10.2833 5.32739 10.5208 5.23156 10.7125 5.03989C10.9042 4.84823 11 4.61073 11 4.32739C11 4.04406 10.9042 3.80656 10.7125 3.61489C10.5208 3.42323 10.2833 3.32739 10 3.32739C9.71667 3.32739 9.47917 3.42323 9.2875 3.61489C9.09583 3.80656 9 4.04406 9 4.32739C9 4.61073 9.09583 4.84823 9.2875 5.03989C9.47917 5.23156 9.71667 5.32739 10 5.32739ZM18 16.3274H2C1.45 16.3274 0.979167 16.1316 0.5875 15.7399C0.195833 15.3482 0 14.8774 0 14.3274V10.3274C0.55 10.3274 1.02083 10.1316 1.4125 9.73989C1.80417 9.34823 2 8.87739 2 8.32739C2 7.77739 1.80417 7.30656 1.4125 6.91489C1.02083 6.52323 0.55 6.32739 0 6.32739V2.32739C0 1.77739 0.195833 1.30656 0.5875 0.914893C0.979167 0.523226 1.45 0.327393 2 0.327393H18C18.55 0.327393 19.0208 0.523226 19.4125 0.914893C19.8042 1.30656 20 1.77739 20 2.32739V6.32739C19.45 6.32739 18.9792 6.52323 18.5875 6.91489C18.1958 7.30656 18 7.77739 18 8.32739C18 8.87739 18.1958 9.34823 18.5875 9.73989C18.9792 10.1316 19.45 10.3274 20 10.3274V14.3274C20 14.8774 19.8042 15.3482 19.4125 15.7399C19.0208 16.1316 18.55 16.3274 18 16.3274ZM18 14.3274V11.7774C17.3833 11.4107 16.8958 10.9232 16.5375 10.3149C16.1792 9.70656 16 9.04406 16 8.32739C16 7.61073 16.1792 6.94823 16.5375 6.33989C16.8958 5.73156 17.3833 5.24406 18 4.87739V2.32739H2V4.87739C2.61667 5.24406 3.10417 5.73156 3.4625 6.33989C3.82083 6.94823 4 7.61073 4 8.32739C4 9.04406 3.82083 9.70656 3.4625 10.3149C3.10417 10.9232 2.61667 11.4107 2 11.7774V14.3274H18Z" fill="#1C1B1F"/>
</svg>
