<svg width="15" height="18" viewBox="0 0 15 18" fill="none" xmlns="http://www.w3.org/2000/svg">
<path d="M7.85645 9.75C9.09909 9.75 10.1064 8.74264 10.1064 7.5C10.1064 6.25736 9.09909 5.25 7.85645 5.25C6.6138 5.25 5.60645 6.25736 5.60645 7.5C5.60645 8.74264 6.6138 9.75 7.85645 9.75Z" stroke="#FEFEFE" stroke-width="2" stroke-linecap="round" stroke-linejoin="round"/>
<path d="M7.85645 1.5C6.26515 1.5 4.73902 2.13214 3.6138 3.25736C2.48859 4.38258 1.85645 5.9087 1.85645 7.5C1.85645 8.919 2.15795 9.8475 2.98145 10.875L7.85645 16.5L12.7314 10.875C13.5549 9.8475 13.8564 8.919 13.8564 7.5C13.8564 5.9087 13.2243 4.38258 12.0991 3.25736C10.9739 2.13214 9.44774 1.5 7.85645 1.5Z" stroke="#FEFEFE" stroke-width="2" stroke-linecap="round" stroke-linejoin="round"/>
</svg>
