<svg width="16" height="21" viewBox="0 0 16 21" fill="none" xmlns="http://www.w3.org/2000/svg">
<path d="M8 10.3274C8.55 10.3274 9.02083 10.1316 9.4125 9.73989C9.80417 9.34823 10 8.87739 10 8.32739C10 7.77739 9.80417 7.30656 9.4125 6.91489C9.02083 6.52323 8.55 6.32739 8 6.32739C7.45 6.32739 6.97917 6.52323 6.5875 6.91489C6.19583 7.30656 6 7.77739 6 8.32739C6 8.87739 6.19583 9.34823 6.5875 9.73989C6.97917 10.1316 7.45 10.3274 8 10.3274ZM8 17.6774C10.0333 15.8107 11.5417 14.1149 12.525 12.5899C13.5083 11.0649 14 9.71073 14 8.52739C14 6.71073 13.4208 5.22323 12.2625 4.06489C11.1042 2.90656 9.68333 2.32739 8 2.32739C6.31667 2.32739 4.89583 2.90656 3.7375 4.06489C2.57917 5.22323 2 6.71073 2 8.52739C2 9.71073 2.49167 11.0649 3.475 12.5899C4.45833 14.1149 5.96667 15.8107 8 17.6774ZM8 20.3274C5.31667 18.0441 3.3125 15.9232 1.9875 13.9649C0.6625 12.0066 0 10.1941 0 8.52739C0 6.02739 0.804167 4.03573 2.4125 2.55239C4.02083 1.06906 5.88333 0.327393 8 0.327393C10.1167 0.327393 11.9792 1.06906 13.5875 2.55239C15.1958 4.03573 16 6.02739 16 8.52739C16 10.1941 15.3375 12.0066 14.0125 13.9649C12.6875 15.9232 10.6833 18.0441 8 20.3274Z" fill="#1C1B1F"/>
</svg>
