<svg width="18" height="24" viewBox="0 0 18 24" fill="none" xmlns="http://www.w3.org/2000/svg">
<path d="M9 0C4.02975 0 0 4.02975 0 9C0 10.9571 0.641625 12.753 1.70813 14.2238C1.72725 14.259 1.73025 14.2984 1.752 14.3321L7.752 23.3321C8.03025 23.7495 8.499 24 9 24C9.501 24 9.96975 23.7495 10.248 23.3321L16.248 14.3321C16.2701 14.2984 16.2727 14.259 16.2919 14.2238C17.3584 12.753 18 10.9571 18 9C18 4.02975 13.9703 0 9 0ZM9 12C7.34325 12 6 10.6567 6 9C6 7.34325 7.34325 6 9 6C10.6567 6 12 7.34325 12 9C12 10.6567 10.6567 12 9 12Z" fill="#19191A" fill-opacity="0.5"/>
</svg>
