<svg width="14" height="18" viewBox="0 0 14 18" fill="none" xmlns="http://www.w3.org/2000/svg">
<path d="M6.99967 9.00033C6.08301 9.00033 5.33301 8.25033 5.33301 7.33366C5.33301 6.41699 6.08301 5.66699 6.99967 5.66699C7.91634 5.66699 8.66634 6.41699 8.66634 7.33366C8.66634 8.25033 7.91634 9.00033 6.99967 9.00033ZM11.9997 7.50033C11.9997 4.47533 9.79134 2.33366 6.99967 2.33366C4.20801 2.33366 1.99967 4.47533 1.99967 7.50033C1.99967 9.45033 3.62467 12.0337 6.99967 15.117C10.3747 12.0337 11.9997 9.45033 11.9997 7.50033ZM6.99967 0.666992C10.4997 0.666992 13.6663 3.35033 13.6663 7.50033C13.6663 10.267 11.4413 13.542 6.99967 17.3337C2.55801 13.542 0.333008 10.267 0.333008 7.50033C0.333008 3.35033 3.49967 0.666992 6.99967 0.666992Z" fill="white"/>
</svg>
