<svg width="31" height="27" viewBox="0 0 31 27" fill="#fff" xmlns="http://www.w3.org/2000/svg">
<path d="M0.166504 16.8332V13.4998H11.8332V16.8332H0.166504ZM0.166504 10.1665V6.83317H18.4998V10.1665H0.166504ZM0.166504 3.49984V0.166504H18.4998V3.49984H0.166504ZM15.1665 26.8332V21.7082L24.3748 12.5415C24.6248 12.2915 24.9026 12.1109 25.2082 11.9998C25.5137 11.8887 25.8193 11.8332 26.1248 11.8332C26.4582 11.8332 26.7776 11.8957 27.0832 12.0207C27.3887 12.1457 27.6665 12.3332 27.9165 12.5832L29.4582 14.1248C29.6804 14.3748 29.854 14.6526 29.979 14.9582C30.104 15.2637 30.1665 15.5693 30.1665 15.8748C30.1665 16.1804 30.1109 16.4929 29.9998 16.8123C29.8887 17.1318 29.7082 17.4165 29.4582 17.6665L20.2915 26.8332H15.1665ZM17.6665 24.3332H19.2498L24.2915 19.2498L23.5415 18.4582L22.7498 17.7082L17.6665 22.7498V24.3332ZM23.5415 18.4582L22.7498 17.7082L24.2915 19.2498L23.5415 18.4582Z" fill="#fff"/>
</svg>
