<svg width="32" height="32" viewBox="0 0 32 32" fill="#fff" xmlns="http://www.w3.org/2000/svg">
<path fill-rule="evenodd" clip-rule="evenodd" d="M31.2102 23.308H30.6093C30.4525 23.3086 30.2991 23.2623 30.1688 23.1751C30.0384 23.088 29.9371 22.9639 29.8777 22.8187C29.8183 22.6736 29.8036 22.5141 29.8354 22.3605C29.8673 22.207 29.9442 22.0664 30.0565 21.9569L30.476 21.5373C30.624 21.3882 30.707 21.1866 30.707 20.9765C30.707 20.7663 30.624 20.5647 30.476 20.4156L29.3613 19.3009C29.2122 19.1529 29.0106 19.0699 28.8005 19.0699C28.5903 19.0699 28.3887 19.1529 28.2396 19.3009L27.836 19.7045C27.7632 19.7847 27.6742 19.8487 27.575 19.8922C27.4757 19.9357 27.3684 19.9577 27.26 19.9569C27.051 19.956 26.8507 19.8725 26.7029 19.7247C26.5551 19.5768 26.4716 19.3766 26.4707 19.1676V18.5667C26.4697 18.357 26.3858 18.1562 26.2372 18.0083C26.0886 17.8604 25.8875 17.7773 25.6778 17.7773H24.0991C23.8901 17.7783 23.6898 17.8617 23.542 18.0096C23.3942 18.1574 23.3107 18.3576 23.3098 18.5667V19.1676C23.3089 19.3766 23.2254 19.5768 23.0776 19.7247C22.9297 19.8725 22.7295 19.956 22.5205 19.9569C22.4121 19.9577 22.3048 19.9357 22.2055 19.8922C22.1062 19.8487 22.0173 19.7847 21.9445 19.7045L21.5409 19.3009C21.3917 19.1529 21.1901 19.0699 20.98 19.0699C20.7699 19.0699 20.5683 19.1529 20.4191 19.3009L19.3045 20.4156C19.1565 20.5647 19.0735 20.7663 19.0735 20.9765C19.0735 21.1866 19.1565 21.3882 19.3045 21.5373C19.4538 21.6867 19.6209 21.8289 19.7631 21.9871C19.8982 22.1293 19.9693 22.3249 19.9605 22.5205C19.9595 22.7295 19.8761 22.9297 19.7282 23.0776C19.5804 23.2254 19.3802 23.3089 19.1711 23.3098H18.5667C18.3576 23.3107 18.1574 23.3942 18.0096 23.542C17.8617 23.6898 17.7783 23.8901 17.7773 24.0991V25.6796C17.7791 26.1151 18.1329 26.4671 18.5667 26.4689H19.1676C19.6031 26.4707 19.9551 26.8245 19.9569 27.2582C19.9616 27.3558 19.9466 27.4534 19.9127 27.545C19.8788 27.6367 19.8267 27.7205 19.7596 27.7916C19.6173 27.9498 19.452 28.092 19.3009 28.2413C19.1529 28.3905 19.0699 28.5921 19.0699 28.8022C19.0699 29.0123 19.1529 29.2139 19.3009 29.3631L20.4156 30.4778C20.5647 30.6258 20.7663 30.7088 20.9765 30.7088C21.1866 30.7088 21.3882 30.6258 21.5373 30.4778L21.9409 30.0742C22.0137 29.994 22.1027 29.93 22.2019 29.8865C22.3012 29.843 22.4085 29.8209 22.5169 29.8218C22.9525 29.8236 23.3045 30.1773 23.3062 30.6111V31.212C23.308 31.6476 23.6618 31.9996 24.0956 32.0013H25.676C25.8851 32.0004 26.0853 31.9169 26.2331 31.7691C26.3809 31.6213 26.4644 31.4211 26.4653 31.212V30.6093C26.4663 30.4003 26.5497 30.2001 26.6976 30.0522C26.8454 29.9044 27.0456 29.8209 27.2547 29.82C27.363 29.8192 27.4704 29.8412 27.5696 29.8847C27.6689 29.9282 27.7578 29.9922 27.8307 30.0725L28.2342 30.476C28.3834 30.624 28.585 30.707 28.7951 30.707C29.0052 30.707 29.2068 30.624 29.356 30.476L30.4707 29.3613C30.6186 29.2122 30.7017 29.0106 30.7017 28.8005C30.7017 28.5903 30.6186 28.3887 30.4707 28.2396L30.0511 27.82C29.9389 27.7105 29.862 27.5699 29.8301 27.4164C29.7983 27.2629 29.813 27.1033 29.8724 26.9582C29.9317 26.8131 30.0331 26.689 30.1635 26.6018C30.2938 26.5146 30.4472 26.4684 30.604 26.4689H31.2049C31.309 26.4691 31.4122 26.4489 31.5085 26.4092C31.6047 26.3696 31.6923 26.3114 31.7661 26.2379C31.8399 26.1645 31.8985 26.0772 31.9385 25.9811C31.9786 25.885 31.9993 25.7819 31.9996 25.6778V24.0991C31.9991 23.8898 31.9158 23.6891 31.768 23.5409C31.6201 23.3927 31.4196 23.3089 31.2102 23.308ZM24.8885 27.2582C24.26 27.2582 23.6572 27.0086 23.2128 26.5641C22.7683 26.1197 22.5187 25.517 22.5187 24.8885C22.5187 24.26 22.7683 23.6572 23.2128 23.2128C23.6572 22.7683 24.26 22.5187 24.8885 22.5187C25.517 22.5187 26.1197 22.7683 26.5641 23.2128C27.0086 23.6572 27.2582 24.26 27.2582 24.8885C27.2582 25.517 27.0086 26.1197 26.5641 26.5641C26.1197 27.0086 25.517 27.2582 24.8885 27.2582Z" fill="#fff"/>
<path fill-rule="evenodd" clip-rule="evenodd" d="M32 7.11111V16.96C30.2487 15.3782 28.0203 14.4251 25.6669 14.2512C23.3134 14.0774 20.9691 14.6927 19.0044 16H3.55556V28.4444H14.8444C15.3067 29.76 16.0249 30.9689 16.96 32H1.77778C1.30628 32 0.854097 31.8127 0.520699 31.4793C0.187301 31.1459 0 30.6937 0 30.2222V7.11111C0 6.63962 0.187301 6.18743 0.520699 5.85403C0.854097 5.52063 1.30628 5.33333 1.77778 5.33333H7.11111V1.77778C7.11111 1.30628 7.29841 0.854097 7.63181 0.520699C7.96521 0.187301 8.41739 0 8.88889 0C9.36038 0 9.81257 0.187301 10.146 0.520699C10.4794 0.854097 10.6667 1.30628 10.6667 1.77778V5.33333H21.3333V1.77778C21.3333 1.30628 21.5206 0.854097 21.854 0.520699C22.1874 0.187301 22.6396 0 23.1111 0C23.5826 0 24.0348 0.187301 24.3682 0.520699C24.7016 0.854097 24.8889 1.30628 24.8889 1.77778V5.33333H30.2222C30.6937 5.33333 31.1459 5.52063 31.4793 5.85403C31.8127 6.18743 32 6.63962 32 7.11111Z" fill="#fff"/>
</svg>
