<svg width="21" height="20" viewBox="0 0 21 20" fill="none" xmlns="http://www.w3.org/2000/svg">
<path d="M3.13921 2.10526C2.54984 2.10526 1.98461 2.32707 1.56787 2.72188C1.15112 3.11669 0.916992 3.65218 0.916992 4.21053V15.0421L10.0059 6.43158C9.87236 5.88625 9.80526 5.32823 9.80588 4.76842C9.80588 3.81053 10.0281 2.90526 10.4614 2.10526H3.13921ZM17.5837 20C18.173 20 18.7383 19.7782 19.155 19.3834C19.5718 18.9886 19.8059 18.4531 19.8059 17.8947V10.3789C18.9614 11.5789 17.9281 12.8526 16.7948 14.2105L15.917 15.2632L15.0503 14.2105C13.5725 12.4737 12.2725 10.8632 11.3503 9.37895C10.9725 8.76842 10.6503 8.16842 10.3948 7.55789L5.87255 11.8421L14.4837 20H17.5837ZM0.916992 17.8947C0.916992 18.4531 1.15112 18.9886 1.56787 19.3834C1.98461 19.7782 2.54984 20 3.13921 20H12.9059L5.08366 12.5895L0.916992 16.5368V17.8947ZM15.917 13.6842C18.817 10.1368 20.917 7.47368 20.917 4.81053C20.917 2.15789 18.6948 0 15.917 0C13.1392 0 10.917 2.15789 10.917 4.81053C10.917 7.47368 12.9948 10.1368 15.917 13.6842ZM18.1392 4.73684C18.1392 5.01331 18.0817 5.28707 17.9701 5.54249C17.8584 5.79791 17.6947 6.03 17.4883 6.22549C17.282 6.42098 17.037 6.57605 16.7674 6.68185C16.4978 6.78765 16.2088 6.8421 15.917 6.8421C15.6252 6.8421 15.3362 6.78765 15.0666 6.68185C14.797 6.57605 14.552 6.42098 14.3456 6.22549C14.1393 6.03 13.9756 5.79791 13.8639 5.54249C13.7522 5.28707 13.6948 5.01331 13.6948 4.73684C13.6948 4.17849 13.9289 3.64301 14.3456 3.2482C14.7624 2.85338 15.3276 2.63158 15.917 2.63158C16.5064 2.63158 17.0716 2.85338 17.4883 3.2482C17.9051 3.64301 18.1392 4.17849 18.1392 4.73684Z" fill="#19191A" fill-opacity="0.5"/>
</svg>
