<svg width="18" height="19" viewBox="0 0 18 19" fill="none" xmlns="http://www.w3.org/2000/svg">
<path d="M12 18.3276L6 16.2276L1.35 18.0276C1.01667 18.161 0.708333 18.1235 0.425 17.9151C0.141667 17.7068 0 17.4276 0 17.0776V3.07764C0 2.86097 0.0625 2.6693 0.1875 2.50264C0.3125 2.33597 0.483333 2.21097 0.7 2.12764L6 0.327637L12 2.42764L16.65 0.627637C16.9833 0.494303 17.2917 0.531803 17.575 0.740137C17.8583 0.94847 18 1.22764 18 1.57764V15.5776C18 15.7943 17.9375 15.986 17.8125 16.1526C17.6875 16.3193 17.5167 16.4443 17.3 16.5276L12 18.3276ZM11 15.8776V4.17764L7 2.77764V14.4776L11 15.8776ZM13 15.8776L16 14.8776V3.02764L13 4.17764V15.8776ZM2 15.6276L5 14.4776V2.77764L2 3.77764V15.6276Z" fill="#1C1B1F"/>
</svg>
