<svg width="24" height="24" viewBox="0 0 24 24" fill="none" xmlns="http://www.w3.org/2000/svg">
<path fill-rule="evenodd" clip-rule="evenodd" d="M12 0C9.74916 0 7.85854 0.11904 6.30008 0.465384C4.72802 0.814764 3.42139 1.4112 2.4163 2.4163C1.4112 3.42139 0.814764 4.72802 0.465384 6.30008C0.11904 7.85854 0 9.74916 0 12C0 14.2508 0.11904 16.1414 0.465384 17.6999C0.814764 19.272 1.4112 20.5786 2.4163 21.5837C3.42139 22.5888 4.72802 23.1852 6.30008 23.5346C7.85854 23.881 9.74916 24 12 24C14.2508 24 16.1414 23.881 17.6999 23.5346C19.272 23.1852 20.5786 22.5888 21.5837 21.5837C22.5888 20.5786 23.1852 19.272 23.5346 17.6999C23.881 16.1414 24 14.2508 24 12C24 9.74916 23.881 7.85854 23.5346 6.30008C23.1852 4.72802 22.5888 3.42139 21.5837 2.4163C20.5786 1.4112 19.272 0.814764 17.6999 0.465384C16.1414 0.11904 14.2508 0 12 0ZM12.3182 7.48436C12.1438 7.62978 12 7.85364 12 8.24998V10.8H13.2C13.8628 10.8 14.4 11.3372 14.4 12C14.4 12.6628 13.8628 13.2 13.2 13.2H12V15.6C12 16.0714 11.8402 16.4803 11.6549 16.8H15.6C16.2628 16.8 16.8 17.3372 16.8 18C16.8 18.6628 16.2628 19.2 15.6 19.2H8.70202C8.01178 19.2 7.5808 18.693 7.46662 18.2309C7.35341 17.7727 7.49438 17.1383 8.08258 16.8104C8.45285 16.604 8.8979 16.3087 9.23198 15.9979C9.36767 15.8717 9.52104 15.7276 9.6 15.5557V13.2H8.4C7.73726 13.2 7.2 12.6628 7.2 12C7.2 11.3372 7.73726 10.8 8.4 10.8H9.6V8.24998C9.6 7.14632 10.0562 6.2452 10.7818 5.64062C11.4798 5.059 12.3644 4.8 13.2 4.8C14.0356 4.8 14.9202 5.05901 15.6182 5.64062C16.3438 6.2452 16.8 7.14632 16.8 8.24998C16.8 8.91272 16.2628 9.44998 15.6 9.44998C14.9372 9.44998 14.4 8.91272 14.4 8.24998C14.4 7.85365 14.2562 7.62979 14.0818 7.48436C13.8798 7.316 13.5644 7.2 13.2 7.2C12.8356 7.2 12.5202 7.31599 12.3182 7.48436Z" fill="#ff0000"/>
</svg>
