<svg width="27" height="35" viewBox="0 0 27 35" fill="none" xmlns="http://www.w3.org/2000/svg">
<path d="M0.166504 29.1668V25.8335H3.49984V14.1668C3.49984 11.8613 4.19428 9.81266 5.58317 8.021C6.97206 6.22933 8.77761 5.05572 10.9998 4.50016V3.3335C10.9998 2.63905 11.2429 2.04877 11.729 1.56266C12.2151 1.07655 12.8054 0.833496 13.4998 0.833496C14.1943 0.833496 14.7846 1.07655 15.2707 1.56266C15.7568 2.04877 15.9998 2.63905 15.9998 3.3335V4.50016C18.2221 5.05572 20.0276 6.22933 21.4165 8.021C22.8054 9.81266 23.4998 11.8613 23.4998 14.1668V25.8335H26.8332V29.1668H0.166504ZM13.4998 34.1668C12.5832 34.1668 11.7984 33.8404 11.1457 33.1877C10.4929 32.5349 10.1665 31.7502 10.1665 30.8335H16.8332C16.8332 31.7502 16.5068 32.5349 15.854 33.1877C15.2012 33.8404 14.4165 34.1668 13.4998 34.1668ZM6.83317 25.8335H20.1665V14.1668C20.1665 12.3335 19.5137 10.7641 18.2082 9.4585C16.9026 8.15294 15.3332 7.50016 13.4998 7.50016C11.6665 7.50016 10.0971 8.15294 8.7915 9.4585C7.48595 10.7641 6.83317 12.3335 6.83317 14.1668V25.8335Z" fill="#fff"/>
</svg>
