<svg width="32" height="32" viewBox="0 0 32 32" fill="none" xmlns="http://www.w3.org/2000/svg">
<g clip-path="url(#clip0_459_14649)">
<path d="M23.9993 6.66699H22.666V9.33368H23.9993C24.7353 9.33368 25.3326 8.73499 25.3326 8.00037C25.3326 7.26562 24.7353 6.66699 23.9993 6.66699Z" fill="#19191A" fill-opacity="0.5"/>
<path d="M30.6667 0H17.3333C16.596 0 16 0.597313 16 1.33331V17.3333C16 18.0693 16.596 18.6666 17.3333 18.6666H22.6666V30.6666C22.6666 31.4026 23.2626 31.9999 23.9999 31.9999C24.7372 31.9999 25.3333 31.4026 25.3333 30.6666V18.6666H30.6666C31.4039 18.6666 31.9999 18.0693 31.9999 17.3333V1.33331C32 0.597313 31.404 0 30.6667 0ZM24 12H22.6667V13.3333C22.6667 14.0693 22.0707 14.6666 21.3334 14.6666C20.5961 14.6666 20.0001 14.0693 20.0001 13.3333V10.6666V5.33331C20 4.59731 20.596 4 21.3333 4H24C26.2053 4 28 5.79469 28 8C28 10.2053 26.2053 12 24 12Z" fill="#19191A" fill-opacity="0.5"/>
<path d="M16 21.3333H15.7067L14.8787 18.02C14.5827 16.8307 13.5187 16 12.292 16H6.37469C5.148 16 4.084 16.8307 3.788 18.02L2.95869 21.3333H2.66669C1.196 21.3333 0 22.5293 0 24V28C0 29.4707 1.196 30.6667 2.66669 30.6667C2.66669 31.4027 3.26269 32 4 32C4.73731 32 5.33331 31.4027 5.33331 30.6667H13.3333C13.3333 31.4027 13.9293 32 14.6666 32C15.4039 32 15.9999 31.4027 15.9999 30.6667C17.4706 30.6667 18.6666 29.4707 18.6666 28V24C18.6667 22.5293 17.4707 21.3333 16 21.3333ZM6.66669 26.6667C5.93069 26.6667 5.33337 26.0694 5.33337 25.3334C5.33337 24.5974 5.93069 24 6.66669 24C7.40269 24 8 24.5973 8 25.3333C8 26.0693 7.40269 26.6667 6.66669 26.6667ZM12 26.6667C11.264 26.6667 10.6667 26.0694 10.6667 25.3334C10.6667 24.5974 11.264 24 12 24C12.736 24 13.3333 24.5973 13.3333 25.3333C13.3333 26.0693 12.736 26.6667 12 26.6667Z" fill="#19191A" fill-opacity="0.5"/>
</g>
<defs>
<clipPath id="clip0_459_14649">
<rect width="32" height="32" fill="white"/>
</clipPath>
</defs>
</svg>
