<svg width="13" height="19" viewBox="0 0 13 19" fill="none" xmlns="http://www.w3.org/2000/svg">
<path d="M0 18.3274V0.327393H7C8.66667 0.327393 10.0833 0.910726 11.25 2.07739C12.4167 3.24406 13 4.66073 13 6.32739C13 7.99406 12.4167 9.41073 11.25 10.5774C10.0833 11.7441 8.66667 12.3274 7 12.3274H4V18.3274H0ZM4 8.32739H7.2C7.75 8.32739 8.22083 8.13156 8.6125 7.73989C9.00417 7.34823 9.2 6.87739 9.2 6.32739C9.2 5.77739 9.00417 5.30656 8.6125 4.91489C8.22083 4.52323 7.75 4.32739 7.2 4.32739H4V8.32739Z" fill="#1C1B1F"/>
</svg>
