<svg width="32" height="32" viewBox="0 0 32 32" fill="none" xmlns="http://www.w3.org/2000/svg">
<rect width="32" height="32" rx="16" fill="#FF0000"/>
<path d="M15.2178 8.08773C12.6205 8.38481 10.0324 10.5378 9.92556 13.6133C9.85842 15.4911 10.3788 16.8999 12.123 17.2955C12.8799 15.9273 11.8789 15.6256 11.7232 14.6359C11.0838 10.58 16.289 7.81411 19.0129 10.6457C20.8976 12.6064 19.6569 18.6385 16.6171 18.0116C13.7055 17.4127 18.0424 12.6111 15.7183 11.6683C13.8291 10.9021 12.825 14.012 13.7207 15.5568C13.1958 18.2133 12.065 20.7165 12.5228 24.0484C14.0076 22.9445 14.5082 20.8306 14.9187 18.626C15.6649 19.0904 16.0632 19.5735 17.0154 19.6486C20.5267 19.9269 22.4877 16.0571 22.0085 12.4876C21.5827 9.32294 18.5002 7.71248 15.2178 8.08773Z" fill="white"/>
</svg>
