<svg width="27" height="27" viewBox="0 0 27 27" fill="none" xmlns="http://www.w3.org/2000/svg">
<path d="M13.4998 13.4998C11.6665 13.4998 10.0971 12.8471 8.7915 11.5415C7.48595 10.2359 6.83317 8.6665 6.83317 6.83317C6.83317 4.99984 7.48595 3.43039 8.7915 2.12484C10.0971 0.819282 11.6665 0.166504 13.4998 0.166504C15.3332 0.166504 16.9026 0.819282 18.2082 2.12484C19.5137 3.43039 20.1665 4.99984 20.1665 6.83317C20.1665 8.6665 19.5137 10.2359 18.2082 11.5415C16.9026 12.8471 15.3332 13.4998 13.4998 13.4998ZM0.166504 26.8332V22.1665C0.166504 21.2221 0.409559 20.354 0.895671 19.5623C1.38178 18.7707 2.02761 18.1665 2.83317 17.7498C4.55539 16.8887 6.30539 16.2429 8.08317 15.8123C9.86095 15.3818 11.6665 15.1665 13.4998 15.1665C15.3332 15.1665 17.1387 15.3818 18.9165 15.8123C20.6943 16.2429 22.4443 16.8887 24.1665 17.7498C24.9721 18.1665 25.6179 18.7707 26.104 19.5623C26.5901 20.354 26.8332 21.2221 26.8332 22.1665V26.8332H0.166504ZM3.49984 23.4998H23.4998V22.1665C23.4998 21.8609 23.4234 21.5832 23.2707 21.3332C23.1179 21.0832 22.9165 20.8887 22.6665 20.7498C21.1665 19.9998 19.6526 19.4373 18.1248 19.0623C16.5971 18.6873 15.0554 18.4998 13.4998 18.4998C11.9443 18.4998 10.4026 18.6873 8.87484 19.0623C7.34706 19.4373 5.83317 19.9998 4.33317 20.7498C4.08317 20.8887 3.88178 21.0832 3.729 21.3332C3.57623 21.5832 3.49984 21.8609 3.49984 22.1665V23.4998ZM13.4998 10.1665C14.4165 10.1665 15.2012 9.84011 15.854 9.18734C16.5068 8.53456 16.8332 7.74984 16.8332 6.83317C16.8332 5.9165 16.5068 5.13178 15.854 4.479C15.2012 3.82623 14.4165 3.49984 13.4998 3.49984C12.5832 3.49984 11.7984 3.82623 11.1457 4.479C10.4929 5.13178 10.1665 5.9165 10.1665 6.83317C10.1665 7.74984 10.4929 8.53456 11.1457 9.18734C11.7984 9.84011 12.5832 10.1665 13.4998 10.1665Z" fill="#1C1B1F"/>
</svg>
