<svg width="27" height="26" viewBox="0 0 27 26" fill="none" xmlns="http://www.w3.org/2000/svg">
<path d="M12.625 20C10.625 19.8958 8.9375 19.125 7.5625 17.6875C6.1875 16.25 5.5 14.5208 5.5 12.5C5.5 10.4167 6.22917 8.64583 7.6875 7.1875C9.14583 5.72917 10.9167 5 13 5C15.0208 5 16.75 5.6875 18.1875 7.0625C19.625 8.4375 20.3958 10.125 20.5 12.125L17.875 11.3438C17.6042 10.2188 17.0208 9.29688 16.125 8.57812C15.2292 7.85938 14.1875 7.5 13 7.5C11.625 7.5 10.4479 7.98958 9.46875 8.96875C8.48958 9.94792 8 11.125 8 12.5C8 13.6875 8.35938 14.7292 9.07812 15.625C9.79688 16.5208 10.7188 17.1042 11.8438 17.375L12.625 20ZM14.125 24.9375C13.9375 24.9792 13.75 25 13.5625 25H13C11.2708 25 9.64583 24.6719 8.125 24.0156C6.60417 23.3594 5.28125 22.4688 4.15625 21.3438C3.03125 20.2188 2.14063 18.8958 1.48438 17.375C0.828125 15.8542 0.5 14.2292 0.5 12.5C0.5 10.7708 0.828125 9.14583 1.48438 7.625C2.14063 6.10417 3.03125 4.78125 4.15625 3.65625C5.28125 2.53125 6.60417 1.64063 8.125 0.984375C9.64583 0.328125 11.2708 0 13 0C14.7292 0 16.3542 0.328125 17.875 0.984375C19.3958 1.64063 20.7188 2.53125 21.8438 3.65625C22.9688 4.78125 23.8594 6.10417 24.5156 7.625C25.1719 9.14583 25.5 10.7708 25.5 12.5V13.0625C25.5 13.25 25.4792 13.4375 25.4375 13.625L23 12.875V12.5C23 9.70833 22.0312 7.34375 20.0938 5.40625C18.1562 3.46875 15.7917 2.5 13 2.5C10.2083 2.5 7.84375 3.46875 5.90625 5.40625C3.96875 7.34375 3 9.70833 3 12.5C3 15.2917 3.96875 17.6562 5.90625 19.5938C7.84375 21.5312 10.2083 22.5 13 22.5H13.375L14.125 24.9375ZM23.6562 25.625L18.3125 20.2812L16.75 25L13 12.5L25.5 16.25L20.7812 17.8125L26.125 23.1562L23.6562 25.625Z" fill="#828282"/>
</svg>
