<svg width="22" height="22" viewBox="0 0 22 22" fill="none" xmlns="http://www.w3.org/2000/svg">
<path fill-rule="evenodd" clip-rule="evenodd" d="M12.375 3.4375C12.375 3.05731 12.683 2.75 13.0625 2.75C13.442 2.75 13.75 3.05731 13.75 3.4375V6.1875C13.75 6.56769 13.442 6.875 13.0625 6.875C12.683 6.875 12.375 6.56769 12.375 6.1875V3.4375ZM6.1875 8.25H15.8125C16.192 8.25 16.5 7.94269 16.5 7.5625V0H5.5V7.5625C5.5 7.94269 5.808 8.25 6.1875 8.25ZM19.25 0H17.875V8.25C17.875 9.009 17.259 9.625 16.5 9.625H5.5C4.741 9.625 4.125 9.009 4.125 8.25V0H2.75C1.23131 0 0 1.23131 0 2.75V19.25C0 20.7687 1.23131 22 2.75 22H19.25C20.7687 22 22 20.7687 22 19.25V2.75C22 1.23131 20.7687 0 19.25 0Z" fill="#19191A"/>
</svg>
