<svg width="126" height="136" viewBox="0 0 126 136" fill="none" xmlns="http://www.w3.org/2000/svg">
<circle cx="41.0595" cy="41.0595" r="41.0595" fill="#FF0000" fill-opacity="0.05"/>
<path fill-rule="evenodd" clip-rule="evenodd" d="M109.043 135.997C108.049 135.454 107.747 134.51 107.561 133.484C107.021 130.501 105.659 128.017 103.094 126.296C102.43 125.851 101.72 125.468 101.007 125.105C100.256 124.722 99.7811 124.178 99.7623 123.31C99.7428 122.4 100.205 121.79 101.007 121.425C104.649 119.77 106.865 117.004 107.567 113.045C107.648 112.592 107.764 112.135 107.933 111.708C108.238 110.944 108.832 110.555 109.664 110.558C110.501 110.561 111.128 110.971 111.373 111.738C111.767 112.97 112.078 114.232 112.357 115.496C112.508 116.179 112.17 116.721 111.526 116.984C110.74 117.303 110.153 116.96 109.624 116.165C108.474 119.271 106.453 121.555 103.543 123.246C106.373 124.966 108.472 127.179 109.637 130.457C110.841 127.191 112.903 124.95 115.717 123.286C115.257 122.97 114.837 122.714 114.455 122.411C113.8 121.892 113.664 121.155 114.071 120.526C114.499 119.864 115.265 119.705 116.021 120.131C116.8 120.57 117.561 121.042 118.355 121.453C119.116 121.847 119.551 122.45 119.543 123.29C119.536 124.088 119.123 124.684 118.393 125.057C117.734 125.394 117.069 125.727 116.448 126.127C113.893 127.773 112.414 130.138 111.817 133.099C111.588 134.235 111.462 135.464 110.156 135.997C109.785 135.997 109.414 135.997 109.043 135.997Z" fill="#FF0000" fill-opacity="0.05"/>
<path fill-rule="evenodd" clip-rule="evenodd" d="M52.6783 41.061C53.45 41.5069 53.8459 42.1809 53.9886 43.0577C54.4391 45.8266 55.9613 47.7908 58.5125 48.9555C59.2249 49.2804 59.6495 49.8377 59.6636 50.6064C59.6781 51.4172 59.2449 52.0017 58.5002 52.3437C56.0233 53.4801 54.5071 55.369 54.0126 58.0629C53.9513 58.396 53.886 58.7348 53.7646 59.0483C53.4822 59.7782 52.9506 60.1919 52.1437 60.1973C51.3367 60.2028 50.7922 59.798 50.5088 59.0691C50.3538 58.67 50.2643 58.2407 50.1832 57.8176C49.6909 55.2543 48.1868 53.4918 45.8684 52.3939C45.0945 52.0272 44.6089 51.4835 44.6133 50.6232C44.6173 49.8481 45.0272 49.287 45.7416 48.9604C48.2901 47.7953 49.8264 45.8446 50.2687 43.0673C50.4077 42.194 50.8085 41.5192 51.5661 41.0605C51.9368 41.061 52.3077 41.061 52.6783 41.061ZM48.8066 50.6396C49.8874 51.851 51.0622 53.1674 52.1296 54.3639C53.2094 53.1555 54.3837 51.8421 55.4521 50.6465C54.3496 49.411 53.1788 48.0987 52.138 46.9326C51.0506 48.1425 49.8877 49.4367 48.8066 50.6396Z" fill="#FF0000" fill-opacity="0.05"/>
<path fill-rule="evenodd" clip-rule="evenodd" d="M50.0397 82.5661C56.7643 82.5661 63.3356 82.5661 70.0649 82.5661C66.7155 76.7635 63.4229 71.0596 60.0428 65.2044C59.2518 66.5742 58.538 67.8135 57.8204 69.0508C57.6503 69.3444 57.497 69.6544 57.2841 69.9148C56.7871 70.5228 56.1474 70.6724 55.4719 70.2637C54.8367 69.8794 54.5751 69.2155 54.9267 68.5801C56.1511 66.3675 57.3961 64.1605 58.7704 62.0402C59.0973 61.536 59.9385 61.3288 60.5804 61.0813C60.9055 60.9557 61.3135 61.0375 61.6839 61.0375C77.1941 61.0363 92.7042 61.057 108.214 61.0088C110.016 61.0034 111.129 61.6581 112.007 63.21C115.611 69.5753 119.298 75.8932 122.954 82.2295C123.867 83.814 123.791 84.5106 122.568 85.8764C110.746 99.0937 98.9244 112.311 87.1027 125.529C85.5541 127.261 84.3237 127.262 82.7879 125.542C71.0404 112.382 59.2919 99.2233 47.5424 86.0654C46.0796 84.4272 46.0254 83.9011 47.1408 81.9704C48.6387 79.3786 50.1382 76.787 51.6292 74.191C52.0099 73.5283 52.4812 73.0244 53.3242 73.2076C54.3468 73.4294 54.695 74.4457 54.0961 75.4985C52.9209 77.5639 51.7211 79.6152 50.5333 81.6737C50.3829 81.9338 50.242 82.1996 50.0397 82.5661ZM84.9776 65.1992C81.6012 71.0502 78.3044 76.7628 74.9344 82.6027C79.2571 82.6027 83.3637 82.6005 87.4705 82.6044C88.6319 82.6054 89.2814 83.1068 89.2931 83.9854C89.3047 84.8817 88.6761 85.3814 87.5071 85.3827C83.4912 85.3861 79.4752 85.3842 75.4594 85.3842C75.1293 85.3842 74.7994 85.3842 74.3672 85.3842C77.8764 97.3651 81.3536 109.239 84.8314 121.113C84.9068 121.114 84.982 121.115 85.0574 121.116C88.5567 109.238 92.056 97.3609 95.5807 85.3965C94.5071 85.4343 93.6944 85.2264 93.55 84.1795C93.4142 83.1959 94.1019 82.7664 94.9782 82.5159C91.6534 76.7596 88.3579 71.053 84.9776 65.1992ZM88.4199 119.581C88.4783 119.613 88.5369 119.645 88.5955 119.678C98.7697 108.305 108.945 96.9319 119.233 85.4314C118.859 85.4094 118.685 85.3904 118.511 85.3901C112.086 85.3886 105.662 85.3983 99.2372 85.374C98.6139 85.3716 98.4148 85.605 98.2514 86.1628C95.4961 95.5722 92.7166 104.975 89.9441 114.379C89.433 116.112 88.9276 117.847 88.4199 119.581ZM81.2497 119.632C81.3096 119.612 81.3694 119.591 81.4295 119.571C81.3721 119.338 81.3234 119.102 81.2562 118.872C78.0724 107.982 74.88 97.0949 71.7194 86.1982C71.5224 85.5182 71.2044 85.3716 70.5563 85.3741C64.2555 85.3958 57.9547 85.3867 51.6537 85.3896C51.398 85.3899 51.1423 85.4257 50.7363 85.4566C60.9815 96.9309 71.1154 108.281 81.2497 119.632ZM109.905 65.1992C106.527 71.052 103.235 76.7551 99.8867 82.5564C106.611 82.5564 113.193 82.5564 119.924 82.5564C116.581 76.7648 113.29 71.0646 109.905 65.1992ZM62.4846 63.8547C65.8639 69.7049 69.1513 75.3962 72.5143 81.2176C75.9026 75.3465 79.1907 69.6491 82.5345 63.8547C75.7901 63.8547 69.2225 63.8547 62.4846 63.8547ZM107.445 63.8926C100.729 63.8926 94.154 63.8926 87.4336 63.8926C90.7944 69.7127 94.0875 75.4161 97.4411 81.2238C100.805 75.3956 104.1 69.6885 107.445 63.8926Z" fill="#FF0000" fill-opacity="0.05"/>
<path fill-rule="evenodd" clip-rule="evenodd" d="M120.685 54.5547C120.939 54.7794 121.422 55.1484 121.825 55.5895C121.992 55.772 122.008 56.1058 122.059 56.377C122.387 58.1066 123.321 59.362 124.934 60.0966C125.615 60.4067 126.121 60.9643 125.974 61.6774C125.859 62.2372 125.462 62.9454 124.986 63.1882C123.301 64.0474 122.326 65.3374 122.024 67.1768C122.009 67.268 121.988 67.3585 121.962 67.4473C121.719 68.2828 121.187 68.7894 120.292 68.7657C119.44 68.743 118.873 68.2385 118.741 67.4292C118.414 65.4128 117.387 64.0125 115.527 63.1016C114.329 62.5144 114.337 60.8268 115.539 60.2465C117.411 59.343 118.411 57.9237 118.747 55.9139C118.881 55.1113 119.452 54.6355 120.685 54.5547ZM122.058 61.6768C121.49 61.0609 120.92 60.4425 120.343 59.8174C119.758 60.4613 119.193 61.0821 118.648 61.6813C119.239 62.3244 119.79 62.9245 120.347 63.5318C120.929 62.9013 121.482 62.3014 122.058 61.6768Z" fill="#FF0000" fill-opacity="0.05"/>
</svg>
