<svg width="32" height="32" viewBox="0 0 32 32" fill="none" xmlns="http://www.w3.org/2000/svg">
<path d="M11.5625 19.1061C11.5625 20.8261 12.8825 22.2127 14.5225 22.2127H17.8692C19.2959 22.2127 20.4559 20.9994 20.4559 19.5061C20.4559 17.8794 19.7492 17.3061 18.6959 16.9327L13.3225 15.0661C12.2692 14.6927 11.5625 14.1194 11.5625 12.4928C11.5625 10.9995 12.7225 9.78613 14.1492 9.78613H17.4959C19.1359 9.78613 20.4559 11.1728 20.4559 12.8928" stroke="#19191A" stroke-width="2.3" stroke-linecap="round" stroke-linejoin="round"/>
<path d="M16 8V24" stroke="#19191A" stroke-width="2.3" stroke-linecap="round" stroke-linejoin="round"/>
<path d="M19.9993 29.3337H11.9993C5.33268 29.3337 2.66602 26.667 2.66602 20.0003V12.0003C2.66602 5.33366 5.33268 2.66699 11.9993 2.66699H19.9993C26.666 2.66699 29.3327 5.33366 29.3327 12.0003V20.0003C29.3327 26.667 26.666 29.3337 19.9993 29.3337Z" stroke="#19191A" stroke-width="2.3" stroke-linecap="round" stroke-linejoin="round"/>
</svg>
