<svg width="35" height="35" viewBox="0 0 35 35" fill="none" xmlns="http://www.w3.org/2000/svg">
<path d="M4.16683 19.1668V22.5002H30.8335V19.1668H4.16683ZM4.16683 0.833496H30.8335C31.7502 0.833496 32.5349 1.15989 33.1877 1.81266C33.8404 2.46544 34.1668 3.25016 34.1668 4.16683V22.5002C34.1668 23.4168 33.8404 24.2016 33.1877 24.8543C32.5349 25.5071 31.7502 25.8335 30.8335 25.8335H24.1668V34.1668L17.5002 30.8335L10.8335 34.1668V25.8335H4.16683C3.25016 25.8335 2.46544 25.5071 1.81266 24.8543C1.15989 24.2016 0.833496 23.4168 0.833496 22.5002V4.16683C0.833496 3.25016 1.15989 2.46544 1.81266 1.81266C2.46544 1.15989 3.25016 0.833496 4.16683 0.833496ZM4.16683 14.1668H30.8335V4.16683H4.16683V14.1668Z" fill="#1C1B1F"/>
</svg>
