<svg width="24" height="25" viewBox="0 0 24 25" fill="none" xmlns="http://www.w3.org/2000/svg">
<mask id="mask0_1_1365" style="mask-type:alpha" maskUnits="userSpaceOnUse" x="0" y="0" width="24" height="25">
<rect y="0.327393" width="24" height="24" fill="#D9D9D9"/>
</mask>
<g mask="url(#mask0_1_1365)">
<path d="M15.3 17.0274L16.7 15.6274L13 11.9274V7.32739H11V12.7274L15.3 17.0274ZM12 22.3274C10.6167 22.3274 9.31667 22.0649 8.1 21.5399C6.88333 21.0149 5.825 20.3024 4.925 19.4024C4.025 18.5024 3.3125 17.4441 2.7875 16.2274C2.2625 15.0107 2 13.7107 2 12.3274C2 10.9441 2.2625 9.64406 2.7875 8.42739C3.3125 7.21073 4.025 6.15239 4.925 5.25239C5.825 4.35239 6.88333 3.63989 8.1 3.11489C9.31667 2.58989 10.6167 2.32739 12 2.32739C13.3833 2.32739 14.6833 2.58989 15.9 3.11489C17.1167 3.63989 18.175 4.35239 19.075 5.25239C19.975 6.15239 20.6875 7.21073 21.2125 8.42739C21.7375 9.64406 22 10.9441 22 12.3274C22 13.7107 21.7375 15.0107 21.2125 16.2274C20.6875 17.4441 19.975 18.5024 19.075 19.4024C18.175 20.3024 17.1167 21.0149 15.9 21.5399C14.6833 22.0649 13.3833 22.3274 12 22.3274ZM12 20.3274C14.2167 20.3274 16.1042 19.5482 17.6625 17.9899C19.2208 16.4316 20 14.5441 20 12.3274C20 10.1107 19.2208 8.22323 17.6625 6.66489C16.1042 5.10656 14.2167 4.32739 12 4.32739C9.78333 4.32739 7.89583 5.10656 6.3375 6.66489C4.77917 8.22323 4 10.1107 4 12.3274C4 14.5441 4.77917 16.4316 6.3375 17.9899C7.89583 19.5482 9.78333 20.3274 12 20.3274Z" fill="#1C1B1F"/>
</g>
</svg>
