<svg width="24" height="24" viewBox="0 0 24 24" fill="none" xmlns="http://www.w3.org/2000/svg">
<path fill-rule="evenodd" clip-rule="evenodd" d="M24 12C24 14.3734 23.2962 16.6934 21.9776 18.6668C20.6591 20.6402 18.7849 22.1783 16.5922 23.0865C14.3995 23.9948 11.9867 24.2324 9.65892 23.7694C7.33115 23.3064 5.19295 22.1635 3.51472 20.4853C1.83649 18.807 0.693605 16.6689 0.230582 14.3411C-0.232441 12.0133 0.0051994 9.60051 0.913451 7.4078C1.8217 5.21508 3.35977 3.34094 5.33316 2.02236C7.30655 0.703788 9.62663 0 12 0C13.5759 0 15.1363 0.310389 16.5922 0.913445C18.0481 1.5165 19.371 2.40042 20.4853 3.51472C21.5996 4.62902 22.4835 5.95189 23.0866 7.4078C23.6896 8.8637 24 10.4241 24 12ZM19.7408 12C19.7408 13.5306 19.2869 15.0269 18.4366 16.2996C17.5863 17.5722 16.3777 18.5642 14.9636 19.15C13.5495 19.7358 11.9935 19.8892 10.4922 19.5907C8.99098 19.2922 7.61197 18.5552 6.52955 17.473C5.44713 16.3908 4.70991 15.012 4.41112 13.5108C4.11232 12.0096 4.26537 10.4535 4.85091 9.03935C5.43645 7.62515 6.42817 6.41633 7.7007 5.56575C8.97322 4.71516 10.4694 4.261 12 4.2607C14.0526 4.2607 16.0211 5.07609 17.4725 6.52749C18.9239 7.97889 19.7393 9.94741 19.7393 12H19.7408ZM18.5404 12C18.5404 13.2936 18.1568 14.5581 17.4381 15.6336C16.7194 16.7092 15.698 17.5475 14.5029 18.0425C13.3078 18.5375 11.9927 18.667 10.724 18.4147C9.45534 18.1623 8.28996 17.5394 7.37527 16.6247C6.46059 15.71 5.83768 14.5447 5.58532 13.276C5.33296 12.0073 5.46248 10.6922 5.9575 9.49711C6.45253 8.30202 7.29082 7.28056 8.36638 6.56189C9.44193 5.84323 10.7064 5.45964 12 5.45964C12.8589 5.45964 13.7094 5.62881 14.5029 5.9575C15.2964 6.28618 16.0174 6.76794 16.6247 7.37527C17.2321 7.9826 17.7138 8.7036 18.0425 9.49711C18.3712 10.2906 18.5404 11.1411 18.5404 12ZM15.2618 10.4964C15.3552 10.4025 15.4149 10.2805 15.4316 10.1492C15.4484 10.0179 15.4213 9.88477 15.3546 9.77048C15.2878 9.65619 15.1852 9.56716 15.0626 9.51725C14.94 9.46734 14.8044 9.45934 14.6768 9.4945C14.4947 9.57013 14.3353 9.69184 14.2145 9.84767L13.587 10.4752L12.6033 11.4574V7.6529C12.6273 7.46417 12.5979 7.27248 12.5184 7.09966C12.4493 6.99135 12.3476 6.90784 12.2279 6.86124C12.1082 6.81463 11.9767 6.80735 11.8526 6.84045C11.7285 6.87354 11.6181 6.9453 11.5375 7.04532C11.4569 7.14534 11.4103 7.26842 11.4043 7.39674C11.3907 7.74839 11.4043 8.10155 11.4043 8.4532V12.8988C11.4041 13.0222 11.4414 13.1428 11.5112 13.2446C11.5811 13.3464 11.6801 13.4245 11.7954 13.4687C12.244 13.6355 12.5457 13.2126 12.8215 12.9382L14.3342 11.4255L15.2618 10.4964Z" fill="#19191A" fill-opacity="0.5"/>
</svg>
