<svg width="20" height="21" viewBox="0 0 20 21" fill="none" xmlns="http://www.w3.org/2000/svg">
<path d="M10 13.3276C10.8333 13.3276 11.5417 13.036 12.125 12.4526C12.7083 11.8693 13 11.161 13 10.3276C13 9.4943 12.7083 8.78597 12.125 8.20264C11.5417 7.6193 10.8333 7.32764 10 7.32764C9.16667 7.32764 8.45833 7.6193 7.875 8.20264C7.29167 8.78597 7 9.4943 7 10.3276C7 11.161 7.29167 11.8693 7.875 12.4526C8.45833 13.036 9.16667 13.3276 10 13.3276ZM10 20.3276C8.61667 20.3276 7.31667 20.0651 6.1 19.5401C4.88333 19.0151 3.825 18.3026 2.925 17.4026C2.025 16.5026 1.3125 15.4443 0.7875 14.2276C0.2625 13.011 0 11.711 0 10.3276C0 8.9443 0.2625 7.6443 0.7875 6.42764C1.3125 5.21097 2.025 4.15264 2.925 3.25264C3.825 2.35264 4.88333 1.64014 6.1 1.11514C7.31667 0.590137 8.61667 0.327637 10 0.327637C11.3833 0.327637 12.6833 0.590137 13.9 1.11514C15.1167 1.64014 16.175 2.35264 17.075 3.25264C17.975 4.15264 18.6875 5.21097 19.2125 6.42764C19.7375 7.6443 20 8.9443 20 10.3276C20 11.711 19.7375 13.011 19.2125 14.2276C18.6875 15.4443 17.975 16.5026 17.075 17.4026C16.175 18.3026 15.1167 19.0151 13.9 19.5401C12.6833 20.0651 11.3833 20.3276 10 20.3276ZM10 18.3276C12.2333 18.3276 14.125 17.5526 15.675 16.0026C17.225 14.4526 18 12.561 18 10.3276C18 8.0943 17.225 6.20264 15.675 4.65264C14.125 3.10264 12.2333 2.32764 10 2.32764C7.76667 2.32764 5.875 3.10264 4.325 4.65264C2.775 6.20264 2 8.0943 2 10.3276C2 12.561 2.775 14.4526 4.325 16.0026C5.875 17.5526 7.76667 18.3276 10 18.3276Z" fill="#1C1B1F"/>
</svg>
