<svg width="32" height="33" viewBox="0 0 32 33" fill="none" xmlns="http://www.w3.org/2000/svg">
<path d="M14.2857 0.553711V32.5537H17.7143V0.553711H14.2857ZM5.71429 2.83943C3.82074 2.83943 2.28571 4.37445 2.28571 6.268C2.28571 8.16154 3.82074 9.69657 5.71429 9.69657C7.60783 9.69657 9.14286 8.16154 9.14286 6.268C9.14286 4.37445 7.60783 2.83943 5.71429 2.83943ZM26.2857 2.83943C24.3922 2.83943 22.8571 4.37445 22.8571 6.268C22.8571 8.16154 24.3922 9.69657 26.2857 9.69657C28.1793 9.69657 29.7143 8.16154 29.7143 6.268C29.7143 4.37445 28.1793 2.83943 26.2857 2.83943ZM3.42857 11.9823C2.05778 11.9823 1.14286 13.2818 1.14286 14.268C1.14286 15.4733 4 17.6889 4 18.8394C4 20.1102 0 21.1251 0 25.6966H4V32.5537H7.42857V25.6966H11.4286C11.4286 21.1251 7.42857 20.0497 7.42857 18.8394C7.42857 17.6291 10.2857 15.5281 10.2857 14.268C10.2857 13.3366 9.31491 11.9823 8 11.9823H3.42857ZM22.8571 11.9823C21.6518 11.9823 20.5714 13.0805 20.5714 14.268C20.5714 16.5537 24.5714 23.4476 24.5714 25.6966V32.5537H28V25.6966C28 23.4921 32 16.5537 32 14.268C32 13.0031 30.9744 11.9823 29.7143 11.9823H22.8571Z" fill="#19191A" fill-opacity="0.5"/>
</svg>
