<svg width="17" height="21" viewBox="0 0 17 21" fill="none" xmlns="http://www.w3.org/2000/svg">
<path d="M1.5 20.3274V12.8274H0V7.32739C0 6.77739 0.195833 6.30656 0.5875 5.91489C0.979167 5.52323 1.45 5.32739 2 5.32739H5C5.55 5.32739 6.02083 5.52323 6.4125 5.91489C6.80417 6.30656 7 6.77739 7 7.32739V12.8274H5.5V20.3274H1.5ZM3.5 4.32739C2.95 4.32739 2.47917 4.13156 2.0875 3.73989C1.69583 3.34823 1.5 2.87739 1.5 2.32739C1.5 1.77739 1.69583 1.30656 2.0875 0.914893C2.47917 0.523226 2.95 0.327393 3.5 0.327393C4.05 0.327393 4.52083 0.523226 4.9125 0.914893C5.30417 1.30656 5.5 1.77739 5.5 2.32739C5.5 2.87739 5.30417 3.34823 4.9125 3.73989C4.52083 4.13156 4.05 4.32739 3.5 4.32739ZM11 20.3274V14.3274H8L10.55 6.67739C10.6833 6.24406 10.9292 5.91073 11.2875 5.67739C11.6458 5.44406 12.05 5.32739 12.5 5.32739C12.95 5.32739 13.3542 5.44406 13.7125 5.67739C14.0708 5.91073 14.3167 6.24406 14.45 6.67739L17 14.3274H14V20.3274H11ZM12.5 4.32739C11.95 4.32739 11.4792 4.13156 11.0875 3.73989C10.6958 3.34823 10.5 2.87739 10.5 2.32739C10.5 1.77739 10.6958 1.30656 11.0875 0.914893C11.4792 0.523226 11.95 0.327393 12.5 0.327393C13.05 0.327393 13.5208 0.523226 13.9125 0.914893C14.3042 1.30656 14.5 1.77739 14.5 2.32739C14.5 2.87739 14.3042 3.34823 13.9125 3.73989C13.5208 4.13156 13.05 4.32739 12.5 4.32739Z" fill="#1C1B1F"/>
</svg>
