<svg width="20" height="21" viewBox="0 0 20 21" fill="none" xmlns="http://www.w3.org/2000/svg">
<path d="M10 20.3274C8.63333 20.3274 7.34167 20.0649 6.125 19.5399C4.90833 19.0149 3.84583 18.2982 2.9375 17.3899C2.02917 16.4816 1.3125 15.4191 0.7875 14.2024C0.2625 12.9857 0 11.6941 0 10.3274C0 8.94406 0.2625 7.64823 0.7875 6.43989C1.3125 5.23156 2.02917 4.17323 2.9375 3.26489C3.84583 2.35656 4.90833 1.63989 6.125 1.11489C7.34167 0.589893 8.63333 0.327393 10 0.327393C11.3833 0.327393 12.6792 0.589893 13.8875 1.11489C15.0958 1.63989 16.1542 2.35656 17.0625 3.26489C17.9708 4.17323 18.6875 5.23156 19.2125 6.43989C19.7375 7.64823 20 8.94406 20 10.3274C20 11.6941 19.7375 12.9857 19.2125 14.2024C18.6875 15.4191 17.9708 16.4816 17.0625 17.3899C16.1542 18.2982 15.0958 19.0149 13.8875 19.5399C12.6792 20.0649 11.3833 20.3274 10 20.3274ZM10 18.2774C10.4333 17.6774 10.8083 17.0524 11.125 16.4024C11.4417 15.7524 11.7 15.0607 11.9 14.3274H8.1C8.3 15.0607 8.55833 15.7524 8.875 16.4024C9.19167 17.0524 9.56667 17.6774 10 18.2774ZM7.4 17.8774C7.1 17.3274 6.8375 16.7566 6.6125 16.1649C6.3875 15.5732 6.2 14.9607 6.05 14.3274H3.1C3.58333 15.1607 4.1875 15.8857 4.9125 16.5024C5.6375 17.1191 6.46667 17.5774 7.4 17.8774ZM12.6 17.8774C13.5333 17.5774 14.3625 17.1191 15.0875 16.5024C15.8125 15.8857 16.4167 15.1607 16.9 14.3274H13.95C13.8 14.9607 13.6125 15.5732 13.3875 16.1649C13.1625 16.7566 12.9 17.3274 12.6 17.8774ZM2.25 12.3274H5.65C5.6 11.9941 5.5625 11.6649 5.5375 11.3399C5.5125 11.0149 5.5 10.6774 5.5 10.3274C5.5 9.97739 5.5125 9.63989 5.5375 9.31489C5.5625 8.98989 5.6 8.66073 5.65 8.32739H2.25C2.16667 8.66073 2.10417 8.98989 2.0625 9.31489C2.02083 9.63989 2 9.97739 2 10.3274C2 10.6774 2.02083 11.0149 2.0625 11.3399C2.10417 11.6649 2.16667 11.9941 2.25 12.3274ZM7.65 12.3274H12.35C12.4 11.9941 12.4375 11.6649 12.4625 11.3399C12.4875 11.0149 12.5 10.6774 12.5 10.3274C12.5 9.97739 12.4875 9.63989 12.4625 9.31489C12.4375 8.98989 12.4 8.66073 12.35 8.32739H7.65C7.6 8.66073 7.5625 8.98989 7.5375 9.31489C7.5125 9.63989 7.5 9.97739 7.5 10.3274C7.5 10.6774 7.5125 11.0149 7.5375 11.3399C7.5625 11.6649 7.6 11.9941 7.65 12.3274ZM14.35 12.3274H17.75C17.8333 11.9941 17.8958 11.6649 17.9375 11.3399C17.9792 11.0149 18 10.6774 18 10.3274C18 9.97739 17.9792 9.63989 17.9375 9.31489C17.8958 8.98989 17.8333 8.66073 17.75 8.32739H14.35C14.4 8.66073 14.4375 8.98989 14.4625 9.31489C14.4875 9.63989 14.5 9.97739 14.5 10.3274C14.5 10.6774 14.4875 11.0149 14.4625 11.3399C14.4375 11.6649 14.4 11.9941 14.35 12.3274ZM13.95 6.32739H16.9C16.4167 5.49406 15.8125 4.76906 15.0875 4.15239C14.3625 3.53573 13.5333 3.07739 12.6 2.77739C12.9 3.32739 13.1625 3.89823 13.3875 4.48989C13.6125 5.08156 13.8 5.69406 13.95 6.32739ZM8.1 6.32739H11.9C11.7 5.59406 11.4417 4.90239 11.125 4.25239C10.8083 3.60239 10.4333 2.97739 10 2.37739C9.56667 2.97739 9.19167 3.60239 8.875 4.25239C8.55833 4.90239 8.3 5.59406 8.1 6.32739ZM3.1 6.32739H6.05C6.2 5.69406 6.3875 5.08156 6.6125 4.48989C6.8375 3.89823 7.1 3.32739 7.4 2.77739C6.46667 3.07739 5.6375 3.53573 4.9125 4.15239C4.1875 4.76906 3.58333 5.49406 3.1 6.32739Z" fill="#1C1B1F"/>
</svg>
