<svg width="24" height="24" viewBox="0 0 24 24" fill="none" xmlns="http://www.w3.org/2000/svg">
<path d="M15.7964 10.1523C15.862 10.7954 15.8996 11.4178 15.8996 12.0003C15.8996 13.0907 15.7678 14.3221 15.5662 15.567C14.3213 15.7686 13.09 15.9003 11.9996 15.9003C10.9141 15.9003 9.68319 15.7689 8.43288 15.5666C8.23139 14.3217 8.09961 13.0906 8.09961 12.0003C8.09961 11.4181 8.1372 10.7955 8.20291 10.1523C9.51513 10.3624 10.8242 10.5003 11.9996 10.5003C13.1752 10.5003 14.4842 10.3624 15.7964 10.1523Z" fill="#19191A" fill-opacity="0.5"/>
<path d="M17.5732 9.82815C17.6543 10.5807 17.7015 11.3134 17.7015 12.0003C17.7015 13.0024 17.6012 14.1019 17.4414 15.2178C19.7072 14.745 21.8015 14.141 22.9235 13.7971C23.286 13.686 23.4285 13.6418 23.6196 13.5653C23.7151 13.5271 23.8027 13.4883 23.9168 13.4338C23.9727 12.9637 24.0015 12.4853 24.0015 12.0003C24.0015 10.718 23.8004 9.48271 23.428 8.32422L23.331 8.35475C22.1579 8.71164 19.9618 9.34255 17.5732 9.82815Z" fill="#19191A" fill-opacity="0.5"/>
<path d="M22.7458 6.6512C21.5665 7.00861 19.5198 7.58938 17.3266 8.04154C16.8213 4.97095 15.9358 1.90838 15.5098 0.521484C18.6778 1.48867 21.2893 3.73142 22.7458 6.6512Z" fill="#19191A" fill-opacity="0.5"/>
<path d="M15.5557 8.36833C14.3141 8.56893 13.0866 8.7 11.9994 8.7C10.9122 8.7 9.68489 8.56893 8.44336 8.36834C8.91911 5.46291 9.76835 2.49493 10.2026 1.07809C10.3137 0.715497 10.358 0.573074 10.4344 0.38192C10.4726 0.286423 10.5114 0.198834 10.566 0.0847314C11.036 0.0287771 11.5144 0 11.9994 0C12.5062 0 13.0055 0.0314057 13.4958 0.0923771C13.5062 0.13216 13.5158 0.16776 13.5253 0.20144C13.5534 0.300949 13.5974 0.4408 13.6712 0.675474L13.679 0.700126C14.0492 1.87683 15.0302 5.15887 15.5557 8.36833Z" fill="#19191A" fill-opacity="0.5"/>
<path d="M6.67298 8.04152C7.17591 4.98446 8.05563 1.93839 8.48084 0.551016L8.48988 0.521484C5.32181 1.48866 2.71031 3.7314 1.25391 6.65119C2.43314 7.00859 4.47974 7.58936 6.67298 8.04152Z" fill="#19191A" fill-opacity="0.5"/>
<path d="M0.573532 8.32422C0.20112 9.48272 0 10.718 0 12.0003C0 12.5019 0.0307771 12.9963 0.0905485 13.4818L0.279669 13.5448L0.281177 13.5453L0.283029 13.546L0.284332 13.5463C0.3452 13.5666 2.1292 14.1557 4.47861 14.7403C5.14155 14.9052 5.84351 15.0682 6.56007 15.2175C6.40029 14.1018 6.3 13.0024 6.3 12.0003C6.3 11.3132 6.34713 10.5805 6.42825 9.82816C4.03918 9.3424 1.84249 8.71127 0.66968 8.35444L0.66152 8.35194L0.573532 8.32422Z" fill="#19191A" fill-opacity="0.5"/>
<path d="M12.0006 17.6996C13.0028 17.6996 14.1022 17.5992 15.2181 17.4395C14.7453 19.7053 14.1413 21.7996 13.7974 22.9214C13.6863 23.284 13.6421 23.4264 13.5656 23.6176C13.5275 23.7132 13.4886 23.8007 13.4341 23.9149C12.964 23.9708 12.4856 23.9996 12.0006 23.9996C11.5156 23.9996 11.0372 23.9708 10.5671 23.9149C10.5126 23.8007 10.4737 23.7132 10.4356 23.6176C10.3591 23.4265 10.3149 23.284 10.2038 22.9215C9.85991 21.7997 9.25598 19.7055 8.7832 17.4399C9.89534 17.5991 10.995 17.6996 12.0006 17.6996Z" fill="#19191A" fill-opacity="0.5"/>
<path d="M4.04438 16.4867C2.5587 16.117 1.29335 15.7457 0.521484 15.5088C1.68332 19.3145 4.68588 22.317 8.49161 23.4788L8.48257 23.4494C8.11129 22.2379 7.39348 19.7619 6.88256 17.1182C5.88895 16.926 4.92291 16.7052 4.04438 16.4867Z" fill="#19191A" fill-opacity="0.5"/>
<path d="M23.4503 15.5178C22.2389 15.8891 19.7627 16.607 17.1188 17.1178C16.6079 19.7617 15.8901 22.2378 15.5188 23.4494L15.5098 23.4788C19.3155 22.317 22.318 19.3145 23.4798 15.5088L23.4503 15.5178Z" fill="#19191A" fill-opacity="0.5"/>
<path d="M0.126953 13.5117C0.168496 13.5171 0.202359 13.5228 0.213593 13.5253C0.223433 13.5277 0.23885 13.5318 0.244439 13.5333L0.256793 13.5369L0.263445 13.5389L0.270439 13.5411L0.276302 13.5429C0.27301 13.5419 0.206336 13.5252 0.126953 13.5117Z" fill="#19191A" fill-opacity="0.5"/>
</svg>
