<svg width="14" height="21" viewBox="0 0 14 21" fill="none" xmlns="http://www.w3.org/2000/svg">
<path d="M7 4.32739C6.45 4.32739 5.97917 4.13156 5.5875 3.73989C5.19583 3.34823 5 2.87739 5 2.32739C5 1.77739 5.19583 1.30656 5.5875 0.914893C5.97917 0.523226 6.45 0.327393 7 0.327393C7.55 0.327393 8.02083 0.523226 8.4125 0.914893C8.80417 1.30656 9 1.77739 9 2.32739C9 2.87739 8.80417 3.34823 8.4125 3.73989C8.02083 4.13156 7.55 4.32739 7 4.32739ZM12 20.3274V15.3274H7C6.45 15.3274 5.97917 15.1316 5.5875 14.7399C5.19583 14.3482 5 13.8774 5 13.3274V7.32739C5 6.77739 5.19583 6.30656 5.5875 5.91489C5.97917 5.52323 6.45 5.32739 7 5.32739C7.4 5.32739 7.74583 5.41489 8.0375 5.58989C8.32917 5.76489 8.64167 6.04406 8.975 6.42739C9.89167 7.52739 10.7208 8.28156 11.4625 8.68989C12.2042 9.09823 13.05 9.31073 14 9.32739V11.3274C13.1167 11.3274 12.225 11.1357 11.325 10.7524C10.425 10.3691 9.65 9.91073 9 9.37739V12.8274H12C12.55 12.8274 13.0208 13.0232 13.4125 13.4149C13.8042 13.8066 14 14.2774 14 14.8274V20.3274H12ZM5 20.3274C3.61667 20.3274 2.4375 19.8399 1.4625 18.8649C0.4875 17.8899 0 16.7107 0 15.3274C0 14.1274 0.379167 13.0691 1.1375 12.1524C1.89583 11.2357 2.85 10.6607 4 10.4274V12.4774C3.41667 12.7107 2.9375 13.0816 2.5625 13.5899C2.1875 14.0982 2 14.6774 2 15.3274C2 16.1607 2.29167 16.8691 2.875 17.4524C3.45833 18.0357 4.16667 18.3274 5 18.3274C5.65 18.3274 6.22917 18.1399 6.7375 17.7649C7.24583 17.3899 7.61667 16.9107 7.85 16.3274H9.9C9.66667 17.4774 9.09167 18.4316 8.175 19.1899C7.25833 19.9482 6.2 20.3274 5 20.3274Z" fill="#1C1B1F"/>
</svg>
