<svg width="28" height="32" viewBox="0 0 28 32" fill="none" xmlns="http://www.w3.org/2000/svg">
<path d="M19.8423 26.435C19.2942 25.8869 18.4206 25.84 17.818 26.3288C16.3357 27.5313 14.4955 28.2021 12.554 28.2021C7.89324 28.2021 4.10051 24.4101 4.10051 19.7479C4.10051 17.6823 4.86098 15.7229 6.21509 14.1902C6.64117 13.7076 6.63014 12.9788 6.18682 12.5113C5.89931 12.2073 5.6125 11.9019 5.32499 11.5971C5.09402 11.3517 4.77135 11.2138 4.43421 11.2158C4.09706 11.2179 3.77646 11.3599 3.54756 11.6075C2.84431 12.37 2.23482 13.216 1.75496 14.1343C0.855899 15.8559 0.380859 17.7968 0.380859 19.7479C0.380859 26.4605 5.84209 31.9225 12.5547 31.9225C14.4935 31.9225 16.424 31.4522 18.1386 30.5642C18.8798 30.1795 19.5838 29.7155 20.2325 29.1846C20.5635 28.9136 20.7648 28.5151 20.7876 28.0884C20.8089 27.6609 20.6504 27.2424 20.347 26.9404L19.8423 26.435Z" fill="#19191A" fill-opacity="0.5"/>
<path d="M8.75938 5.94316C10.3975 5.94316 11.731 4.61043 11.731 2.97158C11.731 1.33342 10.3982 0 8.75938 0C7.12053 0 5.78711 1.33342 5.78711 2.97158C5.7878 4.60974 7.12122 5.94316 8.75938 5.94316Z" fill="#19191A" fill-opacity="0.5"/>
<path d="M27.5914 29.8057L25.725 19.5906C25.6105 18.9612 25.2403 18.3951 24.7122 18.0359C24.3137 17.7642 23.8462 17.6201 23.3636 17.6201C23.2064 17.6201 23.0478 17.6353 22.8934 17.6663L14.3764 19.3686C14.3475 19.3741 14.3171 19.3783 14.2875 19.3783C14.0738 19.3783 13.8883 19.2259 13.8456 19.0163L13.1437 15.5587L19.0572 14.55C19.9852 14.3914 20.6112 13.5075 20.452 12.5802C20.3113 11.757 19.6039 11.1592 18.7676 11.1592C18.6718 11.1592 18.5766 11.1675 18.4822 11.1833L12.4639 12.2099L11.6917 8.40273C11.5297 7.51884 10.7609 6.87695 9.86322 6.87695C9.75084 6.87695 9.63777 6.88729 9.52676 6.90729C9.03793 6.99623 8.61254 7.27133 8.33055 7.67949C8.04787 8.08903 7.94169 8.58337 8.03063 9.07496L10.4948 21.4873C10.6196 22.1168 10.9822 22.6594 11.5152 23.0159C11.9109 23.2799 12.3722 23.4199 12.8486 23.4199C13.0065 23.4199 13.1644 23.4054 13.3195 23.373L21.855 21.6694C21.9743 21.6452 22.0991 21.6707 22.1984 21.7383C22.2977 21.8059 22.3666 21.9121 22.3894 22.0313L23.931 30.4752C24.0923 31.3597 24.8618 32.0016 25.7581 32.0016C25.8711 32.0016 25.9828 31.9913 26.0945 31.9713C26.5834 31.8824 27.0074 31.608 27.2901 31.1984C27.5741 30.7896 27.6803 30.2945 27.5914 29.8057Z" fill="#19191A" fill-opacity="0.5"/>
</svg>
