<svg width="17" height="18" viewBox="0 0 17 18" fill="none" xmlns="http://www.w3.org/2000/svg">
<path d="M2 17.3274C1.45 17.3274 0.979167 17.1316 0.5875 16.7399C0.195833 16.3482 0 15.8774 0 15.3274C0 14.7774 0.195833 14.3066 0.5875 13.9149C0.979167 13.5232 1.45 13.3274 2 13.3274C2.55 13.3274 3.02083 13.5232 3.4125 13.9149C3.80417 14.3066 4 14.7774 4 15.3274C4 15.8774 3.80417 16.3482 3.4125 16.7399C3.02083 17.1316 2.55 17.3274 2 17.3274ZM14 17.3274C14 15.3774 13.6333 13.5566 12.9 11.8649C12.1667 10.1732 11.1667 8.69406 9.9 7.42739C8.63333 6.16073 7.15417 5.16073 5.4625 4.42739C3.77083 3.69406 1.95 3.32739 0 3.32739V0.327393C2.36667 0.327393 4.575 0.769059 6.625 1.65239C8.675 2.53573 10.475 3.75239 12.025 5.30239C13.575 6.85239 14.7917 8.65239 15.675 10.7024C16.5583 12.7524 17 14.9607 17 17.3274H14ZM8 17.3274C8 16.2107 7.79167 15.1732 7.375 14.2149C6.95833 13.2566 6.38333 12.4107 5.65 11.6774C4.91667 10.9441 4.07083 10.3691 3.1125 9.95239C2.15417 9.53573 1.11667 9.32739 0 9.32739V6.32739C1.53333 6.32739 2.9625 6.61489 4.2875 7.18989C5.6125 7.76489 6.775 8.55239 7.775 9.55239C8.775 10.5524 9.5625 11.7149 10.1375 13.0399C10.7125 14.3649 11 15.7941 11 17.3274H8Z" fill="#1C1B1F"/>
</svg>
