<svg width="33" height="28" viewBox="0 0 33 28" fill="none" xmlns="http://www.w3.org/2000/svg">
<path d="M28.7544 25.667H4.35643C3.80069 25.667 3.33984 25.2703 3.33984 24.792C3.33984 24.3137 3.80069 23.917 4.35643 23.917H28.7544C29.3101 23.917 29.771 24.3137 29.771 24.792C29.771 25.2703 29.3101 25.667 28.7544 25.667Z" fill="#19191A" fill-opacity="0.5"/>
<path d="M26.0736 4.06222C23.4441 1.79888 20.8687 1.74055 18.1714 4.06222L16.5313 5.47388C16.3958 5.59055 16.3416 5.77722 16.3958 5.94055C17.4259 9.03222 20.2995 11.5056 23.8914 12.3922C23.9456 12.4039 23.9998 12.4155 24.054 12.4155C24.2031 12.4155 24.3387 12.3689 24.4471 12.2755L26.0736 10.8639C27.4155 9.72055 28.0661 8.61222 28.0661 7.49222C28.0797 6.33722 27.4291 5.21722 26.0736 4.06222Z" fill="#19191A" fill-opacity="0.5"/>
<path d="M21.4501 13.4522C21.057 13.2888 20.6775 13.1255 20.3115 12.9388C20.0133 12.7872 19.7287 12.6238 19.444 12.4488C19.2136 12.3205 18.9425 12.1338 18.685 11.9472C18.6579 11.9355 18.563 11.8655 18.4546 11.7722C18.0073 11.4455 17.5058 11.0255 17.0585 10.5588C17.0178 10.5355 16.95 10.4538 16.8552 10.3488C16.7196 10.2088 16.4892 9.97547 16.2859 9.70714C16.1232 9.53214 15.9335 9.27547 15.7572 9.01881C15.5404 8.70381 15.3506 8.38881 15.1608 8.06214C15.1321 8.00919 15.1043 7.95649 15.0775 7.9041C14.8774 7.51523 14.2882 7.40154 13.9389 7.70226L6.17429 14.3855C5.99808 14.5372 5.83543 14.8288 5.79477 15.0272L5.06283 19.4955C4.92728 20.2888 5.18482 21.0355 5.7541 21.5372C6.24206 21.9455 6.91978 22.1672 7.65172 22.1672C7.81438 22.1672 7.97703 22.1555 8.13968 22.1322L13.3446 21.5022C13.5886 21.4672 13.9274 21.3272 14.09 21.1755L21.8449 14.5006C22.1968 14.1978 22.0641 13.6781 21.6065 13.51C21.555 13.4911 21.5028 13.4718 21.4501 13.4522Z" fill="#19191A" fill-opacity="0.5"/>
</svg>
